<svg width="300" height="46" viewBox="0 0 300 46" fill="none" xmlns="http://www.w3.org/2000/svg">
<mask id="mask0_1414_281" style="mask-type:alpha" maskUnits="userSpaceOnUse" x="0" y="0" width="300" height="46">
<rect width="300" height="46" fill="#D9D9D9"/>
</mask>
<g mask="url(#mask0_1414_281)">
</g>
<g clip-path="url(#clip0_1414_281)">
<path fill-rule="evenodd" clip-rule="evenodd" d="M12.9177 3.30182C13.5917 2.7649 14.3656 2.38024 15.1902 2.1724C16.0148 1.96456 16.8719 1.93808 17.7069 2.09466C18.5418 2.25125 19.3363 2.58742 20.0396 3.0818C20.7429 3.57617 21.3396 4.21788 21.7916 4.96596C22.35 5.89405 22.6818 6.95044 22.7582 8.04294C22.8345 9.13544 22.653 10.2308 22.2295 11.2334C21.835 12.1112 21.2794 12.9 20.5939 13.5552L16.627 17.7558C15.1587 16.2259 13.7034 14.6691 12.248 13.1257C11.6264 12.4587 11.147 11.6625 10.8411 10.7892C10.5352 9.91578 10.4097 8.98494 10.473 8.05756C10.5362 7.13018 10.7866 6.22718 11.2079 5.40763C11.6292 4.58809 12.2119 3.8705 12.9177 3.30182Z" fill="#61AE2C"/>
<path fill-rule="evenodd" clip-rule="evenodd" d="M44.9617 4.76465H66.2127C66.2127 14.6064 66.2127 24.484 66.2127 34.3974H60.5973V10.3208H50.5771V34.3839H44.9617V4.76465ZM196.552 4.84517C197.263 4.67189 198.01 4.79919 198.631 5.1992C199.251 5.5992 199.694 6.23927 199.862 6.97904C199.977 7.35503 200.017 7.75172 199.978 8.14434C199.94 8.53695 199.824 8.91706 199.638 9.26097C199.452 9.60489 199.201 9.90523 198.899 10.1432C198.596 10.3812 198.25 10.5517 197.882 10.6442C197.514 10.7367 197.131 10.749 196.758 10.6806C196.385 10.6121 196.03 10.4642 195.714 10.2463C195.398 10.0283 195.129 9.74485 194.923 9.41362C194.717 9.08238 194.579 8.71047 194.517 8.3211C194.36 7.57833 194.484 6.80085 194.863 6.15078C195.242 5.50071 195.847 5.0282 196.552 4.83174V4.84517ZM204.28 4.84517C204.846 4.70855 205.438 4.75889 205.975 4.98925C206.512 5.21961 206.967 5.61855 207.276 6.13059C207.585 6.64262 207.734 7.24235 207.701 7.84646C207.669 8.45057 207.456 9.02903 207.093 9.50151C206.731 9.97399 206.236 10.317 205.677 10.4829C205.119 10.6488 204.525 10.6293 203.977 10.4272C203.43 10.2251 202.957 9.85038 202.623 9.35509C202.29 8.8598 202.112 8.26856 202.116 7.66351C202.127 7.01053 202.345 6.37966 202.737 5.8697C203.128 5.35973 203.671 4.99944 204.28 4.84517ZM74.0691 14.2396C75.9875 12.8728 78.2792 12.1903 80.601 12.2944C82.9228 12.3984 85.1498 13.2833 86.9485 14.8167C88.3959 16.2049 89.4778 17.9563 90.091 19.904C90.7043 21.8516 90.8285 23.9305 90.4517 25.9424C85.3 25.9424 80.2255 25.9424 75.1123 25.9424C75.2805 26.6439 75.5889 27.3006 76.0172 27.8695C76.4455 28.4384 76.9842 28.9067 77.5981 29.2438C78.8713 29.9348 80.327 30.1711 81.7417 29.9166C83.1563 29.662 84.4516 28.9306 85.4288 27.8347C86.8069 28.7339 88.2365 29.5525 89.6274 30.4249C88.4314 32.297 86.6812 33.7108 84.6431 34.4511C82.6894 35.1434 80.598 35.3021 78.5686 34.9121C76.5392 34.5221 74.6398 33.5963 73.0517 32.2232C71.8625 31.0546 70.939 29.6239 70.3485 28.0357C69.758 26.4475 69.5155 24.7419 69.6386 23.0435C69.6843 21.324 70.1101 19.6386 70.883 18.1186C71.656 16.5985 72.7551 15.2849 74.0949 14.2799L74.0691 14.2396ZM77.611 17.9437C76.9507 18.331 76.3786 18.8627 75.934 19.502C75.4894 20.1414 75.1828 20.8733 75.0351 21.6478H85.3386C85.0952 20.362 84.4305 19.2044 83.4582 18.3731C82.6081 17.7547 81.6129 17.3882 80.5787 17.3126C79.5444 17.2369 78.5099 17.455 77.5852 17.9437H77.611ZM99.506 15.434C101.914 12.0789 106.718 11.4884 110.183 13.3001C111.919 14.2554 113.376 15.6807 114.401 17.426C115.425 19.1714 115.979 21.1722 116.004 23.218C116.122 25.3305 115.68 27.436 114.729 29.3053C113.777 31.1747 112.352 32.7363 110.608 33.8203C107.092 35.9005 102.03 35.4039 99.506 31.9145C99.506 35.6186 99.506 39.3362 99.506 43.0402C97.7544 43.0402 96.0027 43.0402 94.2511 43.0402C94.2511 32.9927 94.2511 22.9496 94.2511 12.9109H99.506V15.434ZM104.374 17.6618C103.46 17.7597 102.585 18.1028 101.836 18.6579C101.086 19.213 100.488 19.9611 100.098 20.8291C99.605 21.9423 99.4138 23.1752 99.5455 24.3937C99.6772 25.6122 100.127 26.7698 100.845 27.7407C101.824 28.8789 103.182 29.587 104.643 29.7216C106.104 29.8561 107.559 29.4071 108.715 28.4655C109.349 27.8695 109.858 27.1433 110.21 26.3326C110.562 25.5219 110.749 24.6441 110.76 23.7544C110.771 22.8646 110.605 21.9822 110.273 21.1624C109.941 20.3426 109.45 19.6031 108.831 18.9905C108.219 18.4555 107.506 18.0598 106.739 17.8287C105.971 17.5976 105.166 17.5362 104.374 17.6484V17.6618ZM123.693 13.8772C125.544 12.7275 127.683 12.182 129.834 12.3112C131.985 12.4403 134.05 13.2383 135.761 14.6019C137.285 15.9749 138.432 17.7439 139.085 19.7289C139.739 21.7138 139.877 23.8438 139.484 25.9021C134.332 26.0363 129.27 25.9021 124.157 25.9021C124.339 26.6649 124.687 27.3739 125.174 27.9743C125.661 28.5747 126.273 29.0504 126.965 29.3646C128.213 29.9611 129.611 30.1305 130.958 29.8484C132.304 29.5663 133.53 28.8474 134.461 27.7944L138.685 30.3846C137.481 32.2543 135.728 33.667 133.688 34.4108C131.69 35.1215 129.548 35.2711 127.477 34.8446C125.405 34.4182 123.479 33.4308 121.89 31.9817C120.597 30.6096 119.645 28.9287 119.117 27.0855C118.59 25.2422 118.503 23.2925 118.864 21.4062C119.103 19.8635 119.658 18.3926 120.491 17.0935C121.325 15.7943 122.417 14.6973 123.693 13.8772ZM126.72 17.9034C126.042 18.2788 125.453 18.8075 124.996 19.4507C124.539 20.0939 124.226 20.8354 124.08 21.6209H134.383C134.149 20.3866 133.528 19.268 132.619 18.4403C131.771 17.7867 130.767 17.3905 129.717 17.2957C128.666 17.201 127.611 17.4113 126.669 17.9034H126.72ZM171.425 15.4072C173.846 12.0252 178.689 11.4615 182.166 13.3001C183.886 14.2683 185.326 15.6987 186.336 17.4428C187.346 19.1869 187.89 21.181 187.91 23.218C188.022 25.3113 187.586 27.3968 186.649 29.2522C185.712 31.1076 184.31 32.6632 182.591 33.7532C179.075 35.8736 173.962 35.4039 171.425 31.9011V43.0134H166.17V12.8573H171.425V15.3804V15.4072ZM175.778 17.7155C174.926 17.9006 174.127 18.2913 173.447 18.8563C172.807 19.4638 172.296 20.2036 171.946 21.0286C171.597 21.8536 171.416 22.7456 171.416 23.6474C171.416 24.5493 171.597 25.4413 171.946 26.2663C172.296 27.0913 172.807 27.8311 173.447 28.4386C174.603 29.3758 176.056 29.8232 177.515 29.6913C178.974 29.5594 180.332 28.8579 181.316 27.7273C182.298 26.4343 182.773 24.802 182.646 23.1587C182.519 21.5153 181.8 19.9829 180.633 18.8697C179.953 18.3172 179.164 17.9275 178.322 17.7281C177.481 17.5286 176.608 17.5243 175.765 17.7155H175.778ZM196.385 13.4209C198.235 12.4543 200.314 12.0666 202.371 12.3048C204.428 12.5429 206.375 13.3967 207.976 14.763C209.411 16.1561 210.48 17.9083 211.082 19.8533C211.684 21.7982 211.799 23.8712 211.415 25.8753H196.089C196.271 26.6432 196.622 27.3566 197.114 27.9597C197.606 28.5627 198.224 29.0389 198.922 29.3512C200.165 29.9471 201.558 30.1148 202.899 29.8301C204.24 29.5453 205.459 28.8229 206.379 27.7676L210.604 30.3577C209.383 32.2447 207.6 33.6598 205.529 34.3839C203.498 35.0848 201.324 35.2055 199.234 34.7334C197.143 34.2613 195.212 33.2137 193.642 31.6998C192.295 30.1756 191.349 28.3139 190.898 26.296C190.446 24.278 190.504 22.1727 191.066 20.1849C191.437 18.7112 192.108 17.3377 193.032 16.157C193.956 14.9763 195.113 14.0158 196.423 13.3404L196.385 13.4209ZM198.6 17.9303C197.937 18.3105 197.362 18.8383 196.917 19.4762C196.472 20.1141 196.167 20.8464 196.024 21.6209H206.328C206.073 20.2461 205.327 19.023 204.241 18.1987C203.397 17.6467 202.431 17.3319 201.435 17.2849C200.44 17.2378 199.45 17.4602 198.561 17.9303H198.6ZM216.837 15.8635C218.027 14.53 219.511 13.5199 221.161 12.9211C222.811 12.3223 224.577 12.1529 226.304 12.4278C227.888 12.6465 229.4 13.253 230.717 14.1977C232.033 15.1425 233.116 16.3985 233.877 17.8631L229.369 20.6681C228.997 19.9685 228.486 19.3598 227.87 18.8828C227.254 18.4059 226.547 18.0717 225.797 17.9027C225.047 17.7336 224.271 17.7337 223.521 17.9028C222.771 18.0719 222.064 18.4061 221.448 18.8831C220.779 19.457 220.239 20.1765 219.865 20.9911C219.491 21.8058 219.293 22.6958 219.284 23.5987C219.276 24.5017 219.457 25.3956 219.815 26.2178C220.173 27.04 220.7 27.7705 221.358 28.3581C221.976 28.8503 222.688 29.1996 223.446 29.3826C224.204 29.5656 224.99 29.5781 225.753 29.4194C226.516 29.2606 227.238 28.9343 227.87 28.462C228.503 27.9897 229.031 27.3824 229.421 26.6805C230.927 27.6199 232.46 28.5191 233.967 29.4452C233.075 31.0735 231.803 32.4412 230.269 33.4217C228.735 34.4023 226.989 34.964 225.192 35.055C223.394 35.1459 221.604 34.7632 219.986 33.9422C218.368 33.1212 216.975 31.8884 215.936 30.3577C214.533 28.1779 213.858 25.5779 214.014 22.9585C214.17 20.3391 215.148 17.846 216.799 15.8635H216.837ZM264.607 12.5083C266.488 12.1221 268.433 12.264 270.244 12.9197C272.054 13.5753 273.665 14.721 274.911 16.2393C276.348 18.0573 277.227 20.2848 277.432 22.6311C277.636 24.9773 277.157 27.3332 276.057 29.3915C275.202 30.9448 274.003 32.2622 272.56 33.2333C271.116 34.2044 269.471 34.8011 267.761 34.9732C266.05 35.1454 264.326 34.8881 262.73 34.2228C261.135 33.5575 259.716 32.5037 258.592 31.1496C257.188 29.3988 256.302 27.2607 256.041 24.9951C255.78 22.7294 256.157 20.4337 257.124 18.3866C257.851 16.8681 258.902 15.5436 260.197 14.5151C261.492 13.4867 262.996 12.7817 264.594 12.4546L264.607 12.5083ZM265.084 17.9839C264.127 18.2821 263.27 18.8541 262.611 19.6347C261.627 20.8725 261.134 22.4548 261.232 24.0586C261.331 25.6623 262.012 27.1665 263.139 28.2641C264.181 29.16 265.499 29.6343 266.849 29.5998C268.2 29.5652 269.494 29.0243 270.493 28.0763C271.07 27.4669 271.521 26.7405 271.818 25.9421C272.115 25.1436 272.251 24.2902 272.219 23.4347C272.186 22.5791 271.985 21.7396 271.629 20.9682C271.272 20.1968 270.767 19.51 270.145 18.9502C269.435 18.3834 268.606 18.0003 267.726 17.8323C266.846 17.6643 265.94 17.7163 265.084 17.9839ZM143.373 12.9109H148.628C148.628 15.8232 148.628 18.7355 148.628 21.6478H150.405L156.278 12.9109H162.551C160.039 16.454 157.515 19.9971 155.016 23.5535C157.592 27.1771 160.168 30.8141 162.744 34.4376C160.696 34.4376 158.61 34.545 156.587 34.3705C154.63 31.579 152.724 28.7607 150.766 25.9558H148.576C148.576 28.7875 148.576 31.6059 148.576 34.4376H143.322V12.9646L143.373 12.9109ZM236.259 12.9109C242.274 12.9109 248.276 12.9109 254.291 12.9109C254.291 14.6825 254.291 16.454 254.291 18.2792H247.902C247.902 23.6474 247.902 29.0157 247.902 34.4644H242.648C242.648 29.0962 242.648 23.728 242.648 18.2926C240.51 18.2926 238.385 18.2926 236.208 18.2926C236.208 16.5077 236.208 14.7362 236.208 12.9244L236.259 12.9109ZM280.578 12.9109H285.845C285.845 15.8187 285.845 18.731 285.845 21.6478H287.635C289.593 18.7355 291.499 15.7964 293.521 12.8975C295.595 12.8975 297.681 12.8975 299.768 12.8975L292.233 23.5267C294.809 27.1636 297.385 30.7872 299.961 34.4376C297.913 34.4376 295.827 34.5181 293.805 34.3571C291.847 31.5656 289.941 28.7607 287.983 25.9424H285.807C285.807 28.7741 285.807 31.5924 285.807 34.4242H280.552V12.9512L280.578 12.9109ZM12.2866 26.1303L16.6141 21.527C18.1725 23.1777 19.7567 24.8016 21.2765 26.4926C22.2445 27.6885 22.7754 29.2026 22.7754 30.7671C22.7754 32.3316 22.2445 33.8457 21.2765 35.0416C20.3592 36.1644 19.0968 36.9212 17.7042 37.1831C16.3116 37.4449 14.875 37.1955 13.639 36.4775C12.7524 35.955 12.0016 35.215 11.4517 34.3216C10.9018 33.4282 10.5695 32.4085 10.4835 31.3509C10.3958 30.3879 10.5117 29.4165 10.8233 28.5052C11.1348 27.5939 11.6343 26.7649 12.2866 26.0766V26.1303Z" fill="#015929"/>
<path fill-rule="evenodd" clip-rule="evenodd" d="M1.00396 15.9574C1.55122 15.0967 2.29056 14.387 3.15863 13.8891C4.0267 13.3913 4.99763 13.1201 5.98828 13.0988C6.81176 13.0784 7.63059 13.2333 8.39462 13.5541C9.15865 13.8748 9.85182 14.3547 10.4317 14.9643L14.8364 19.6212C13.2652 21.272 11.7325 22.9496 10.1355 24.5601C9.00065 25.5933 7.53981 26.1537 6.03297 26.1339C4.52613 26.114 3.07933 25.5154 1.96991 24.4527C0.885471 23.375 0.195672 21.9369 0.0193519 20.3862C-0.156969 18.8355 0.191229 17.2694 1.00396 15.9574Z" fill="#A8E542"/>
<path fill-rule="evenodd" clip-rule="evenodd" d="M22.7958 14.9374C23.4766 14.2362 24.3059 13.7112 25.2169 13.4047C26.128 13.0982 27.0953 13.0188 28.0412 13.1728C28.987 13.3269 29.885 13.7101 30.6628 14.2916C31.4407 14.8731 32.0767 15.6368 32.5197 16.5211C33.226 17.9233 33.4273 19.5427 33.0871 21.0862C32.7469 22.6296 31.8877 23.9952 30.6651 24.9358C29.5211 25.7961 28.1269 26.218 26.7186 26.1299C25.3103 26.0419 23.9745 25.4493 22.9374 24.4527C21.3919 22.869 19.8979 21.2317 18.3652 19.6347C19.8464 18.051 21.3146 16.4942 22.7958 14.9374Z" fill="#1F8635"/>
</g>
<defs>
<clipPath id="clip0_1414_281">
<rect width="300" height="41" fill="white" transform="translate(0 2)"/>
</clipPath>
</defs>
</svg>
