<svg width="186" height="46" viewBox="0 0 186 46" fill="none" xmlns="http://www.w3.org/2000/svg">
<mask id="mask0_1414_282" style="mask-type:alpha" maskUnits="userSpaceOnUse" x="0" y="0" width="186" height="46">
<rect width="186" height="46" fill="#D9D9D9"/>
</mask>
<g mask="url(#mask0_1414_282)">
<path fill-rule="evenodd" clip-rule="evenodd" d="M85.0513 19.5268H96.7818C96.7818 20.6203 96.7818 21.7184 96.7818 22.8119H92.6341C92.6341 26.097 92.6341 29.4197 92.6341 32.7283C91.4938 32.7283 90.3536 32.7283 89.2133 32.7283C89.2133 29.4432 89.2133 26.1158 89.2133 22.8119H85.0656C85.0656 21.7184 85.0656 20.6203 85.0656 19.5268H85.0513ZM79.8251 19.5925H76.0242C74.8547 19.5962 73.7342 20.0567 72.9073 20.8736C72.0804 21.6904 71.6141 22.7972 71.6104 23.9523C71.6131 24.8038 71.8665 25.6361 72.3398 26.3477C72.8131 27.0593 73.4857 27.6196 74.2758 27.9602L70.9785 32.7564H74.6368L77.6918 28.3168H79.8678V32.794H83.2981V19.5925H79.8678H79.8251ZM182.967 19.5268H186.398V32.7236H182.967V31.785C182.171 32.3564 181.258 32.7488 180.292 32.9348C179.008 33.1972 177.674 33.0989 176.443 32.651C175.212 32.2031 174.133 31.4235 173.327 30.4006C171.189 27.6082 171.507 23.2343 174.173 20.8784C175.374 19.8381 176.893 19.2264 178.488 19.1413C180.083 19.0562 181.66 19.5026 182.967 20.4091V19.5409V19.5268ZM182.967 27.3266C183.134 26.4362 183.134 25.5232 182.967 24.6328V24.5906C181.936 22.0141 178.411 21.8639 176.857 23.0747C175.171 24.2198 174.9 26.801 176.14 28.3591C178.515 31.0106 182.15 30.0955 182.991 27.3031L182.967 27.3266ZM145.044 19.4517H148.474V23.7928C148.474 25.5714 150.826 27.0779 153.524 25.2476V19.6629H156.955V32.8597H153.524V28.2699C148.531 30.5789 145.044 27.7302 145.044 24.492V19.4517ZM159.511 19.5221C159.511 23.9242 159.511 28.3215 159.511 32.7236H162.941V27.5237C163.416 27.5237 163.891 27.5237 164.367 27.5237C165.616 29.2601 166.904 30.9778 168.167 32.7095C169.503 32.7095 170.833 32.7095 172.168 32.7095L167.103 26.0266C168.731 23.8553 170.366 21.6825 172.006 19.508H167.911C166.644 21.2945 165.377 23.0779 164.11 24.8581C163.72 24.8581 163.34 24.8581 162.955 24.8581C162.955 23.0747 162.955 21.2961 162.955 19.5127L159.511 19.5221ZM55.2285 14.6695H69.0733C69.0733 20.7235 69.0733 26.7775 69.0733 32.8315H65.4007C65.4007 27.9164 65.4007 23.0028 65.4007 18.0907C63.2294 18.0907 61.0581 18.0907 58.8916 18.0907C58.8916 23.0059 58.8916 27.9211 58.8916 32.8362H55.2333V14.6742L55.2285 14.6695ZM119.687 22.5256C119.137 22.6603 118.629 22.9244 118.205 23.2953C117.819 23.6703 117.515 24.1184 117.31 24.6127C117.105 25.107 117.003 25.6373 117.011 26.1714C117.019 26.7055 117.137 27.2325 117.357 27.7206C117.576 28.2087 117.894 28.6478 118.29 29.0114C118.982 29.5591 119.847 29.8505 120.733 29.8351C121.62 29.8196 122.474 29.4984 123.146 28.9269C123.534 28.5491 123.84 28.0967 124.044 27.5977C124.249 27.0987 124.348 26.5636 124.335 26.0254C124.322 25.4872 124.197 24.9573 123.969 24.4684C123.741 23.9795 123.414 23.5419 123.008 23.1827C122.541 22.8301 121.999 22.5869 121.423 22.4714C120.847 22.356 120.251 22.3713 119.682 22.5162L119.687 22.5256ZM117.003 21.052C118.951 18.5741 122.984 18.6116 125.27 20.5827C128.448 23.1967 128.595 28.5233 125.588 31.3298C123.35 33.5871 119.055 33.7654 117.007 31.1702C117.007 33.4369 117.007 35.7037 117.007 37.9704H113.601C113.601 31.8163 113.601 25.6606 113.601 19.5033H117.022C117.022 20.0149 117.022 20.5264 117.022 21.0379L117.003 21.052ZM103.343 22.5913C102.916 22.8236 102.545 23.1444 102.256 23.5316C101.966 23.9188 101.765 24.3633 101.666 24.8346H108.403C108.245 24.1121 107.863 23.4562 107.31 22.9574C106.751 22.5326 106.082 22.2735 105.379 22.2103C104.677 22.1472 103.971 22.2826 103.343 22.6007V22.5913ZM103.12 19.3719C105.533 18.7008 108.346 19.325 110.023 21.2257C110.761 22.0786 111.295 23.0847 111.585 24.1693C111.876 25.2539 111.915 26.3892 111.7 27.4909C108.375 27.4909 105.049 27.4909 101.723 27.4909C101.845 27.9469 102.067 28.3707 102.375 28.7318C102.682 29.0928 103.066 29.3823 103.5 29.5793C105.115 30.2598 107.268 30.0486 108.413 28.6407C109.339 29.1663 110.261 29.6919 111.178 30.2316C110.242 31.5781 108.821 32.5214 107.206 32.8691C104.949 33.3384 102.417 32.9629 100.597 31.494C98.2214 29.6168 97.5943 26.1956 98.6063 23.4596C98.9666 22.4669 99.5663 21.5759 100.354 20.8637C101.141 20.1515 102.092 19.6394 103.125 19.3719H103.12ZM106.835 14.646C107.19 14.5114 107.578 14.4904 107.946 14.586C108.313 14.6816 108.641 14.889 108.882 15.1789C109.124 15.4687 109.267 15.8262 109.291 16.2008C109.315 16.5754 109.22 16.948 109.018 17.2658C108.816 17.5837 108.517 17.8307 108.165 17.9719C107.813 18.113 107.425 18.1411 107.056 18.0522C106.687 17.9633 106.355 17.7619 106.108 17.4765C105.862 17.1912 105.712 16.8363 105.681 16.4622C105.653 16.0777 105.75 15.6944 105.958 15.3679C106.165 15.0413 106.473 14.7885 106.835 14.646ZM101.832 14.646C102.059 14.5627 102.3 14.526 102.542 14.5384C102.783 14.5507 103.02 14.6117 103.237 14.7176C103.453 14.8236 103.646 14.9722 103.802 15.1544C103.959 15.3366 104.076 15.5485 104.146 15.7771C104.212 16.0002 104.233 16.2339 104.207 16.4649C104.181 16.6959 104.11 16.9196 103.997 17.1234C103.884 17.3271 103.731 17.5068 103.547 17.6523C103.364 17.7977 103.153 17.906 102.927 17.971C102.702 18.0361 102.465 18.0565 102.231 18.0312C101.997 18.0059 101.771 17.9353 101.564 17.8236C101.358 17.7118 101.176 17.561 101.029 17.3797C100.882 17.1985 100.772 16.9904 100.706 16.7673C100.6 16.3389 100.656 15.8871 100.864 15.4966C101.071 15.1061 101.415 14.8037 101.832 14.646ZM135.328 22.6524C133.004 23.361 132.254 26.4866 133.66 28.3262C134.246 29.0753 135.107 29.5662 136.057 29.6927C137.006 29.8192 137.968 29.571 138.734 29.002C139.131 28.6707 139.456 28.264 139.69 27.8061C139.924 27.3482 140.062 26.8484 140.097 26.3366C140.132 25.8247 140.062 25.3112 139.891 24.8266C139.721 24.342 139.453 23.8963 139.105 23.5159C138.619 23.0383 138.008 22.7043 137.341 22.5517C136.674 22.3991 135.976 22.434 135.328 22.6524ZM135.142 19.2546C136.235 19.0399 137.363 19.0822 138.436 19.3781C139.509 19.6741 140.497 20.2154 141.319 20.9582C142.546 22.1202 143.319 23.6728 143.502 25.3425C143.684 27.0122 143.265 28.692 142.317 30.0861C141.581 31.13 140.57 31.9543 139.393 32.4691C138.216 32.9839 136.918 33.1693 135.641 33.0052C134.589 32.884 133.58 32.5245 132.691 31.9547C131.803 31.3849 131.06 30.6201 130.52 29.7201C129.767 28.4351 129.434 26.9514 129.569 25.4726C129.703 23.9938 130.298 22.5923 131.27 21.4603C132.281 20.3201 133.649 19.5469 135.157 19.264L135.142 19.2546ZM79.8678 22.2441V25.6559H76.8271C76.3688 25.6546 75.9297 25.4743 75.6056 25.1542C75.2816 24.8341 75.099 24.4003 75.0977 23.9476C75.1002 23.4958 75.2834 23.0632 75.6073 22.7441C75.9312 22.425 76.3697 22.2453 76.8271 22.2441H79.8678Z" fill="#EB2316"/>
<path fill-rule="evenodd" clip-rule="evenodd" d="M22.2836 0.0225098C27.8796 -0.223646 33.3742 1.55586 37.7363 5.02709C42.0984 8.49832 45.028 13.4227 45.9756 18.876C46.9231 24.3293 45.8233 29.9367 42.8826 34.646C39.9419 39.3553 35.3625 42.8426 30.0036 44.4536C24.6448 46.0646 18.8749 45.6886 13.7768 43.396C8.67875 41.1034 4.6029 37.0519 2.31416 32.0018C0.0254218 26.9516 -0.318877 21.2501 1.34588 15.967C3.01063 10.684 6.56999 6.18259 11.356 3.30763C14.6593 1.31882 18.4187 0.188654 22.2836 0.0225098Z" fill="#FEFFFE"/>
<path fill-rule="evenodd" clip-rule="evenodd" d="M22.5447 2.81464C23.0759 2.7724 23.6098 2.7724 24.141 2.81464C25.5654 2.86182 26.9802 3.06327 28.36 3.41535C29.2583 3.6417 30.1368 3.93829 30.9874 4.30232C30.1037 4.34456 29.2152 4.30232 28.3363 4.36333C25.8467 4.45719 23.2906 4.76693 21.0385 5.88857C20.0303 6.38538 19.1222 7.0597 18.3589 7.87842C17.3284 9.02326 16.5602 10.3743 16.1069 11.8393C15.741 12.9985 15.475 14.1858 15.1567 15.3638C14.558 17.7995 13.9119 20.2211 13.3322 22.6615C14.6388 23.1918 15.9406 23.7502 17.2472 24.2993C17.3138 24.3322 17.3866 24.3513 17.461 24.3556C17.6803 23.9736 17.928 23.6081 18.2021 23.2622C18.9007 22.3332 19.8608 21.628 20.9625 21.2348C21.6189 21.0097 22.3151 20.9199 23.008 20.9707C23.7009 21.0216 24.3759 21.2121 24.9915 21.5304C25.9574 22.0263 26.7159 22.842 27.1342 23.8347C27.441 24.5954 27.5409 25.4222 27.4241 26.2329C27.2714 27.4705 26.7524 28.6361 25.9322 29.5837C25.0514 30.6291 23.8116 31.3174 22.4496 31.5172C21.4597 31.6555 20.451 31.4727 19.5752 30.9963C18.6209 30.4654 17.8372 29.6798 17.3137 28.7296C17.2129 28.5486 17.1225 28.3621 17.0429 28.1711C15.5177 28.5465 13.9974 28.9407 12.477 29.3256C12.8192 30.3729 13.2983 31.3716 13.9024 32.2963C15.2282 34.2647 17.2695 35.6543 19.6037 36.1774C21.8909 36.6819 24.2822 36.4381 26.4168 35.4828C28.4661 34.5651 30.1879 33.0589 31.358 31.1605C32.0192 30.0937 32.4885 28.922 32.7453 27.6971C33.1054 26.2531 33.1216 24.7463 32.7928 23.295C32.3089 21.1559 31.011 19.2825 29.1677 18.0623C28.1394 17.377 26.9658 16.9335 25.737 16.766C24.5082 16.5984 23.2569 16.7111 22.079 17.0955C21.2355 17.3748 20.4358 17.7698 19.7035 18.2688C19.4943 18.4376 19.2754 18.5943 19.0478 18.7381C19.4517 17.1425 19.8745 15.5562 20.2831 13.9606C20.6772 13.9395 21.0721 13.9395 21.4662 13.9606C23.7068 14.0453 25.9507 13.9464 28.1747 13.6649C29.7593 13.4494 31.2915 12.9534 32.6978 12.2007C34.458 11.2131 35.8542 9.69761 36.684 7.87372C36.741 7.89363 36.7952 7.92042 36.8455 7.9535C39.7427 10.5424 41.8147 13.908 42.8092 17.6399C43.8036 21.3718 43.6775 25.3089 42.4461 28.9712C41.2148 32.6336 38.9314 35.8629 35.8743 38.2658C32.8173 40.6686 29.1185 42.141 25.229 42.5036C24.7539 42.5552 24.2788 42.5505 23.8037 42.5928C21.1692 42.6448 18.5493 42.1938 16.0879 41.2646C12.5845 39.9284 9.52788 37.6534 7.26171 34.6953C4.99554 31.7372 3.60965 28.2134 3.25985 24.5199C3.17823 23.6526 3.15601 22.7808 3.19333 21.9106C3.39084 16.9044 5.49423 12.1563 9.0829 8.61586C12.6716 5.07542 17.481 3.00358 22.5494 2.81464H22.5447Z" fill="#EB2316"/>
<path fill-rule="evenodd" clip-rule="evenodd" d="M29.4533 6.53652C31.273 6.4802 33.0974 6.53652 34.9171 6.41919C34.4559 7.63946 33.6893 8.72445 32.6888 9.57291C31.2402 10.6613 29.5156 11.3337 27.7049 11.5158C24.6547 11.957 21.5712 11.6848 18.502 11.7599C18.8805 10.7718 19.4648 9.87326 20.2171 9.12238C21.1764 8.22329 22.3446 7.57062 23.6189 7.22169C25.5234 6.73375 27.4861 6.50326 29.4533 6.53652Z" fill="#008F32"/>
</g>
</svg>
