<svg width="81" height="46" viewBox="0 0 81 46" fill="none" xmlns="http://www.w3.org/2000/svg">
<mask id="mask0_1414_285" style="mask-type:alpha" maskUnits="userSpaceOnUse" x="0" y="0" width="81" height="46">
<rect width="81" height="46" fill="#D9D9D9"/>
</mask>
<g mask="url(#mask0_1414_285)">
<path fill-rule="evenodd" clip-rule="evenodd" d="M38.2771 3.06971C40.6044 2.76181 43.0631 3.48255 44.8114 5.06012C45.802 5.96999 46.6819 7.07244 47.0659 8.38247C47.6979 8.62003 48.3599 8.80916 48.9342 9.17241C48.9782 9.19129 49.0169 9.2205 49.0472 9.25756C49.0775 9.29462 49.0984 9.33843 49.1081 9.38529C49.1179 9.43215 49.1161 9.48066 49.1031 9.52671C49.0901 9.57277 49.0662 9.615 49.0334 9.64983C48.5502 10.2506 47.8801 10.66 47.2885 11.1421C47.1237 13.2618 46.3415 15.2867 45.0386 16.9668C43.559 18.9215 41.2559 20.3111 38.7719 20.3976C36.4162 20.3243 34.1117 19.6918 32.0485 18.5525C31.1167 18.0528 30.2742 17.402 29.5552 16.6266C30.4017 16.5701 31.2493 16.5448 32.0924 16.4744C30.1319 15.8252 28.4908 14.3272 27.5567 12.4936C27.1231 11.6506 27.0008 10.69 26.9662 9.75362C26.9916 8.41245 27.2488 7.05284 27.8969 5.8662C29.0501 6.84296 30.2691 7.80126 31.6933 8.35133C32.2503 7.039 32.8812 5.6863 33.9998 4.75914C35.1819 3.72818 36.741 3.25999 38.2668 3.06394L38.2771 3.06971ZM41.7518 5.81546C41.2334 5.84682 40.7365 6.03414 40.3264 6.35285C39.6656 6.89485 39.3589 7.73668 39.209 8.55545C39.0233 9.54604 38.9414 10.6589 39.495 11.5538C40.0151 12.3794 41.0691 12.6239 41.9836 12.6205C42.4656 12.6393 42.9444 12.5363 43.376 12.3211C43.8076 12.1058 44.1779 11.7852 44.4527 11.3888C45.0755 10.4503 45.3137 9.30835 45.1181 8.19912C44.7952 6.70919 43.273 5.61827 41.7507 5.81085L41.7518 5.81546ZM43.0861 7.4011C42.4115 7.68133 42.2362 8.51855 42.242 9.17818C42.2074 9.621 42.4196 10.1307 42.8832 10.2518C43.4229 10.291 43.8058 9.79052 43.8992 9.30733C44.0076 8.78494 44.0652 8.19681 43.8115 7.7067C43.7444 7.57988 43.6356 7.48016 43.5034 7.42446C43.3711 7.36876 43.2237 7.36051 43.0861 7.4011ZM74.3249 14.6662C75.9256 14.2857 77.5252 13.8993 79.1235 13.5073C77.9311 16.0385 76.7018 18.5548 75.4759 21.0688C76.9555 23.1918 78.5354 25.2479 80 27.3813C78.3982 27.7192 76.8125 28.139 75.2187 28.5103C75.1034 28.523 74.9281 28.5876 74.86 28.448C73.5915 26.551 72.3587 24.6344 71.0809 22.7466C71.089 24.9931 71.1466 27.2383 71.1962 29.4836C69.742 29.8111 68.3004 30.1905 66.8439 30.5076C66.8185 29.3164 66.8278 28.1251 66.7574 26.9327C66.7401 23.4639 66.6075 19.9974 66.5902 16.5298C68.0283 16.2023 69.4571 15.8275 70.8987 15.5069C71.0267 17.7349 70.9644 19.9686 71.0486 22.1954C72.1949 19.7091 73.2121 17.1629 74.3226 14.6605L74.3249 14.6662ZM60.4654 18.0197C61.8608 17.6841 63.2516 17.3347 64.6516 17.0199C64.6885 19.7876 64.7831 22.5552 64.7992 25.3229C64.8869 27.2118 64.873 29.1031 64.9145 30.9931C63.4707 31.3241 62.0315 31.7058 60.5899 32.016C60.4919 29.381 60.4746 26.739 60.4861 24.1005C59.439 26.4911 58.3227 28.8505 57.2202 31.2157C56.9226 31.835 56.6643 32.475 56.3287 33.077C54.9448 33.3664 53.5736 33.732 52.1932 34.0456C52.101 29.3925 52.0018 24.7394 51.9291 20.092C53.3661 19.723 54.8122 19.4082 56.2515 19.0288C56.3522 21.6734 56.3841 24.3192 56.3472 26.9662C57.6757 23.9679 59.0988 21.0065 60.4677 18.0255L60.4654 18.0197ZM46.2644 21.4447C46.1007 21.4897 45.862 21.5035 45.8412 21.718C45.0155 24.0636 44.2036 26.4138 43.3548 28.7525C43.3145 26.5683 43.311 24.3819 43.2268 22.2C41.7795 22.4953 40.3587 22.9092 38.9126 23.2068L38.8861 23.3463C38.8941 25.4832 38.9795 27.6304 38.9541 29.7708C38.5355 28.7744 38.0396 27.8103 37.5921 26.829C37.1101 25.8453 36.6834 24.8328 36.1702 23.8652C34.6156 24.3012 33.0242 24.601 31.4719 25.0438C32.5836 27.0688 33.6877 29.0988 34.784 31.1338C33.6827 33.7769 32.534 36.4062 31.3993 39.039C33.0138 38.6838 34.6202 38.2525 36.2428 37.8973C37.1781 35.4756 38.073 33.0354 39.0106 30.6137C39.066 32.8048 39.0717 34.9959 39.1478 37.1869C40.6032 36.8191 42.0771 36.5169 43.5221 36.1133C43.4309 33.9326 43.4275 31.7485 43.4067 29.5666C44.3835 31.5271 45.4041 33.4725 46.3786 35.4364C47.9989 35.0904 49.6008 34.6511 51.2222 34.297C51.0664 33.969 50.8912 33.6505 50.6975 33.3433C49.6515 31.5916 48.6343 29.8238 47.5745 28.079C48.5894 25.5143 49.6503 22.9681 50.6433 20.3953C49.1844 20.7412 47.7256 21.101 46.261 21.447L46.2644 21.4447ZM10.4565 24.8651C12.071 24.5191 13.6752 24.089 15.2874 23.7199C15.3174 26.4876 15.4258 29.2495 15.4373 32.0172C15.5273 34.0929 15.5181 36.1687 15.5596 38.2444C15.6426 39.777 15.6242 41.3131 15.6553 42.8468C14.0408 43.2204 12.4262 43.6414 10.8117 44C10.7898 41.8089 10.7195 39.6179 10.6791 37.436C9.52586 38.196 8.18811 38.655 6.83537 38.9156C5.72826 39.1151 4.5462 39.167 3.49099 38.7288C2.68054 38.3776 2.03632 37.7281 1.69194 36.9148C1.18567 35.78 1.11532 34.5127 1.11532 33.288C1.1061 31.248 1 29.208 1 27.1668C2.62029 26.8036 4.22906 26.3838 5.84358 26.0136C5.85281 27.7434 5.94161 29.4732 5.94276 31.2111C5.94276 31.8949 5.95545 32.6606 6.41213 33.2176C6.73503 33.5936 7.26898 33.6236 7.72797 33.5751C8.74295 33.4524 9.71749 33.1036 10.5799 32.5546C10.5799 29.9922 10.4438 27.4344 10.4565 24.8731V24.8651ZM26.0425 26.3308C27.4264 25.9975 28.8102 25.6677 30.1941 25.3286C30.3094 27.7434 30.2495 30.164 30.3625 32.5788C30.3817 34.1587 30.4048 35.737 30.4317 37.3138C30.4778 37.9688 30.4859 38.6261 30.479 39.2823C29.0259 39.604 27.5855 39.988 26.1324 40.3075C26.1255 38.2732 26.0171 36.2425 26.0171 34.2082C26.0171 33.5982 26.0644 32.9882 26.0171 32.3781C24.782 35.4053 23.2793 38.3148 21.9554 41.3027C20.5577 41.6775 19.1438 41.9946 17.7369 42.3313C17.7138 39.0055 17.5973 35.6832 17.5674 32.3574C17.4936 31.0404 17.5062 29.7212 17.4809 28.4042C18.9305 28.0433 20.387 27.7123 21.8355 27.3433C21.8747 29.2068 21.8597 31.0716 21.9508 32.9328C21.9796 33.7181 21.8355 34.5 21.9024 35.2865C23.2263 32.272 24.6528 29.3083 26.0425 26.3273V26.3308Z" fill="#0D0729"/>
</g>
</svg>
