<svg width="221" height="46" viewBox="0 0 221 46" fill="none" xmlns="http://www.w3.org/2000/svg">
<mask id="mask0_1415_286" style="mask-type:alpha" maskUnits="userSpaceOnUse" x="0" y="0" width="221" height="46">
<rect width="221" height="46" fill="#D9D9D9"/>
</mask>
<g mask="url(#mask0_1415_286)">
<path fill-rule="evenodd" clip-rule="evenodd" d="M37.7241 12.8385L37.4882 13.0038L40.3656 16.9409L40.5917 16.7464C42.2188 15.3368 45.0395 14.389 49.2139 14.389C54.992 14.389 58.1565 16.1923 59.1846 18.54H48.9405V22.9434H58.8076C57.4916 24.9363 54.4021 26.3945 49.2139 26.3945C45.0489 26.3945 42.2287 25.4467 40.601 24.0371L40.3749 23.8428L37.493 27.7893L37.7335 27.9546C40.3182 29.7288 44.1245 30.803 49.2139 30.803C54.3033 30.803 58.3595 29.6608 60.9442 27.7846C63.5383 25.8986 64.8024 23.2838 64.8024 20.4015C64.8024 17.5192 63.5337 14.8994 60.9397 13.0184C58.355 11.1423 54.4633 10 49.2139 10C43.964 10 40.3089 11.0741 37.7241 12.8483V12.8385ZM1 29.9233L1.08962 29.5732C2.698 23.2448 4.82994 18.5692 7.59861 15.4729C10.3767 12.3622 13.7868 10.8603 17.9045 10.8603C22.0222 10.8603 25.4277 12.367 28.2104 15.4729C30.9792 18.5692 33.1158 23.2498 34.7194 29.5829L34.809 29.933H29.5642L29.5123 29.7288C27.8332 23.5996 25.8333 20.1683 23.8145 18.2678C21.8053 16.3771 19.7535 15.9833 17.9045 15.9833C16.0556 15.9833 14.0038 16.3818 11.9994 18.2678C9.98052 20.1683 7.97597 23.5949 6.30152 29.724L6.24494 29.928H1V29.9233ZM155.613 29.933L155.703 29.5829C157.311 23.2498 159.443 18.5739 162.211 15.4729C164.994 12.3622 168.405 10.8603 172.517 10.8603C176.63 10.8603 180.045 12.367 182.823 15.4779C185.592 18.5789 187.723 23.2545 189.332 29.5829L189.422 29.933H184.176L184.12 29.7288C182.446 23.5996 180.441 20.1683 178.422 18.2678C176.418 16.3771 174.366 15.9833 172.517 15.9833C170.668 15.9833 168.617 16.3818 166.612 18.2678C164.588 20.1683 162.588 23.5996 160.909 29.7288L160.858 29.933H155.613ZM66.1519 15.2639V10.8603H93.48V15.2639H82.4288V29.9233H77.2025V15.2639H66.1519ZM147.208 18.535C147.179 17.7427 147.047 17.1546 146.835 16.7172C146.608 16.2313 146.283 15.9151 145.896 15.7014C145.5 15.4877 145.029 15.3708 144.5 15.3126C143.967 15.2542 143.397 15.2542 142.812 15.2542H127.374V10.8555H143.085V10.8651C144.161 10.8651 145.25 10.8749 146.274 10.9867C147.387 11.1082 148.453 11.3513 149.372 11.8567C150.297 12.3622 151.071 13.1253 151.608 14.2579C152.141 15.3855 152.439 16.8727 152.439 18.8169V29.9183H134.624C132.317 29.9183 129.935 29.9183 128.133 29.2234C127.219 28.8685 126.435 28.3339 125.883 27.5124C125.336 26.6909 125.034 25.6167 125.034 24.2266C125.034 22.8365 125.336 21.7576 125.883 20.9411C126.435 20.1196 127.219 19.585 128.133 19.2301C129.935 18.535 132.317 18.535 134.624 18.535H147.208ZM134.661 25.5293H147.212V22.9484H134.661C133.482 22.9484 132.35 22.9484 131.506 23.1379C131.086 23.2303 130.775 23.3664 130.567 23.5415C130.374 23.7115 130.261 23.9252 130.261 24.2364C130.261 24.5475 130.374 24.7615 130.567 24.9315C130.775 25.1113 131.086 25.2427 131.506 25.3348C132.35 25.5246 133.482 25.5246 134.661 25.5246V25.5293ZM210.095 18.535V18.5447H197.822V10.8603H192.596V29.9233H210.411C212.717 29.9233 215.1 29.9233 216.901 29.2281C217.816 28.8733 218.599 28.3387 219.146 27.5172C219.698 26.6959 220 25.6217 220 24.2316C220 22.8416 219.698 21.7623 219.146 20.9458C218.599 20.1246 217.816 19.5897 216.901 19.2349C215.1 18.54 212.717 18.54 210.411 18.54H210.095V18.535ZM210.369 25.5293H197.822V22.9484H210.369C211.553 22.9484 212.684 22.9484 213.524 23.1379C213.944 23.2303 214.26 23.3664 214.467 23.5415C214.66 23.7115 214.769 23.9252 214.769 24.2364C214.769 24.5475 214.66 24.7615 214.467 24.9315C214.26 25.1113 213.944 25.2427 213.524 25.3348C212.684 25.5246 211.553 25.5246 210.369 25.5246V25.5293ZM96.508 10.8603L107.309 27.634L101.277 37H107.512L124.346 10.8603H118.115L110.257 23.0553L102.404 10.8603H96.508Z" fill="black"/>
</g>
</svg>
