<svg width="186" height="46" viewBox="0 0 186 46" fill="none" xmlns="http://www.w3.org/2000/svg">
<mask id="mask0_1414_284" style="mask-type:alpha" maskUnits="userSpaceOnUse" x="0" y="0" width="186" height="46">
<rect width="186" height="46" fill="#D9D9D9"/>
</mask>
<g mask="url(#mask0_1414_284)">
</g>
<g clip-path="url(#clip0_1414_284)">
<path fill-rule="evenodd" clip-rule="evenodd" d="M99.3066 35.7963V11.2037H113.752V16.915H105.331V35.7963H99.3066Z" fill="#E30613"/>
<path fill-rule="evenodd" clip-rule="evenodd" d="M131.93 35.7963V26.161H122.976V35.7963H116.951V11.2037H122.976V20.3783H131.93V11.2037H137.947V35.7963H131.93Z" fill="#E30613"/>
<path fill-rule="evenodd" clip-rule="evenodd" d="M172.908 35.7963V16.915H165.869V11.2037H186.001V16.915H178.932V35.7963H172.908Z" fill="#E30613"/>
<path fill-rule="evenodd" clip-rule="evenodd" d="M157.004 35.7883V21.7842L147.419 35.7883H142.379V11.2117H148.403V25.0728L157.831 11.2117H163.029V35.7883H157.004Z" fill="#E30613"/>
<path fill-rule="evenodd" clip-rule="evenodd" d="M64.6915 35.7963V21.1805L58.6746 28.9015L52.6651 21.1805V35.7963H46.6406V11.2037H52.5825L58.6746 19.6634L64.7666 11.2037H70.716V35.7963H64.6915Z" fill="#E30613"/>
<path fill-rule="evenodd" clip-rule="evenodd" d="M82.1492 27.138H87.7455L84.9436 19.433L82.1492 27.138ZM90.8855 35.7883L89.6235 32.3409H80.2638L79.0018 35.7883H72.9473L82.2093 11.2037H87.7756L97.0301 35.7883H90.8855Z" fill="#E30613"/>
<path fill-rule="evenodd" clip-rule="evenodd" d="M2.80356e-05 16.2001C-0.0063969 13.2306 1.09172 10.3776 3.05733 8.25679C4.01858 7.22062 5.16514 6.39696 6.43025 5.83375C7.69536 5.27054 9.05377 4.97904 10.4264 4.9762H34.4642V10.6636H10.4264C9.75378 10.6637 9.08775 10.8041 8.46646 11.0767C7.84518 11.3493 7.28083 11.7488 6.80573 12.2523C5.84255 13.2918 5.30317 14.6892 5.30337 16.1445V25.6765C5.19688 26.8988 4.7109 28.0495 3.9212 28.9491C3.14498 29.8438 2.10877 30.4392 0.976566 30.6411L0.0300702 30.792L2.80356e-05 16.2001Z" fill="#E30613"/>
<path fill-rule="evenodd" clip-rule="evenodd" d="M0 41.9921V36.3047H24.0378C24.713 36.2989 25.3805 36.1521 26.0019 35.8727C26.6232 35.5932 27.1862 35.1866 27.6585 34.6763C28.6199 33.6387 29.1591 32.2446 29.1609 30.792V21.7207C29.1677 20.4067 29.6088 19.1366 30.4078 18.1303C31.2021 17.139 32.3049 16.4799 33.5177 16.2716L34.4642 16.1207V30.792C34.4711 33.7631 33.3698 36.6173 31.3994 38.7353C30.4412 39.7741 29.2964 40.6001 28.0323 41.1648C26.7682 41.7295 25.4101 42.0216 24.0378 42.0238L0 41.9921Z" fill="#E30613"/>
<path fill-rule="evenodd" clip-rule="evenodd" d="M20.3948 30.8952V23.5397L17.2549 27.567L14.115 23.5397V30.8952H9.96094V16.4146H13.8971L17.2549 21.0693L20.6127 16.4146H24.5489V30.8952H20.3948Z" fill="#E30613"/>
</g>
<defs>
<clipPath id="clip0_1414_284">
<rect width="186" height="37" fill="white" transform="translate(0 5)"/>
</clipPath>
</defs>
</svg>
