<svg width="114" height="80" viewBox="0 0 114 80" fill="none" xmlns="http://www.w3.org/2000/svg">
<path d="M82 40C82 29.6955 77.7651 19.8099 70.2203 12.5025C62.6756 5.19517 52.4343 1.06011 41.7337 1.00065C31.0331 0.941191 20.7429 4.96217 13.1111 12.1852C5.47931 19.4082 1.12618 29.2462 1.0027 39.5499C0.879209 49.8537 4.99539 59.7858 12.4521 67.1765C19.9087 74.5672 30.0998 78.8158 40.799 78.9942C51.4981 79.1725 61.8358 75.2662 69.5537 68.1284C77.2715 60.9907 81.753 54.3017 82 44" stroke="#B80002" stroke-width="1.5" stroke-linecap="round"/>
<path d="M82 39.25C81.5858 39.25 81.25 39.5858 81.25 40C81.25 40.4142 81.5858 40.75 82 40.75V39.25ZM82 40.75H114V39.25H82V40.75Z" fill="#B80002"/>
</svg>
