<svg width="20" height="20" viewBox="0 0 20 20" fill="none" xmlns="http://www.w3.org/2000/svg">
<path d="M7.50033 3.71627C8.25993 3.47465 9.09233 3.33325 10.0003 3.33325C13.4852 3.33325 15.857 5.41622 17.2712 7.25353C17.9795 8.17369 18.3337 8.63375 18.3337 9.99992C18.3337 11.3661 17.9795 11.8262 17.2712 12.7463C15.857 14.5836 13.4852 16.6666 10.0003 16.6666C6.51542 16.6666 4.14363 14.5836 2.7294 12.7463C2.02113 11.8262 1.66699 11.3661 1.66699 9.99992C1.66699 8.63375 2.02113 8.17369 2.7294 7.25353C3.13043 6.73254 3.60843 6.19179 4.16699 5.68439" stroke="#B80002" stroke-linecap="round"/>
<path d="M12.5 10C12.5 11.3807 11.3807 12.5 10 12.5C8.61925 12.5 7.5 11.3807 7.5 10C7.5 8.61925 8.61925 7.5 10 7.5C11.3807 7.5 12.5 8.61925 12.5 10Z" stroke="#B80002"/>
</svg>
