<svg width="20" height="20" viewBox="0 0 20 20" fill="none" xmlns="http://www.w3.org/2000/svg">
<path d="M9 17.1005V12C9.00076 11.8684 8.97554 11.7379 8.92577 11.6161C8.87601 11.4943 8.80268 11.3834 8.71 11.29L8.53339 11.4669L8.53292 11.4665M9 17.1005L8.53292 11.4665M9 17.1005L8.8882 17.1564L9 17.38H9.25V17.255L11 16.38L9 17.1005ZM8.53292 11.4665C8.53278 11.4663 8.53264 11.4662 8.5325 11.4661L3.23339 6.17694L2.80564 5.75H3.41H16.59H17.1944L16.7666 6.17694L11.4675 11.4661C11.4674 11.4662 11.4672 11.4663 11.4671 11.4665C11.3978 11.5365 11.3429 11.6194 11.3057 11.7106C11.2683 11.802 11.2494 11.8998 11.25 11.9986L11.25 12L11.25 16.38V16.5345L11.1118 16.6036L9.1118 17.6036L8.75 17.7845V17.38V12V11.9986C8.75058 11.8998 8.73166 11.802 8.69433 11.7106C8.65708 11.6194 8.60223 11.5365 8.53292 11.4665ZM0.25 4.17009V4.17V3C0.25 2.27065 0.539732 1.57118 1.05546 1.05546C1.57118 0.539731 2.27065 0.25 3 0.25H17C17.7293 0.25 18.4288 0.539731 18.9445 1.05546C19.4603 1.57118 19.75 2.27065 19.75 3V4.16621C19.7381 4.54607 19.6477 4.91937 19.4843 5.26253L19.46 5.31352V5.37V5.37613C19.3328 5.65011 19.158 5.89953 18.9437 6.11277L18.9432 6.11322L12.8232 12.2332L12.75 12.3064V12.41L12.75 16.9992C12.75 16.9993 12.75 16.9994 12.75 16.9995C12.7495 17.1379 12.7108 17.2735 12.638 17.3912C12.5652 17.509 12.4613 17.6043 12.3377 17.6666C12.3377 17.6667 12.3376 17.6667 12.3375 17.6667L8.33819 19.6664L8.336 19.6675C8.23151 19.721 8.11591 19.7493 7.9985 19.75C7.85845 19.7503 7.7211 19.7114 7.60202 19.6377C7.49415 19.5702 7.40524 19.4763 7.34365 19.3649C7.28198 19.2534 7.24974 19.128 7.25 19.0005V19V12.41V12.306L7.1762 12.2326L1.01632 6.11277C0.80199 5.89953 0.627221 5.65011 0.5 5.37613V5.37V5.31787L0.479167 5.27009C0.327886 4.9231 0.249869 4.54862 0.25 4.17009ZM7 12.41V19L0.25 5.43C0.39128 5.75097 0.591392 6.04266 0.84 6.29L7 12.41ZM18 4.25H18.25V4V3C18.25 2.66848 18.1183 2.35054 17.8839 2.11612C17.6495 1.8817 17.3315 1.75 17 1.75H3C2.66848 1.75 2.35054 1.8817 2.11612 2.11612C1.8817 2.35054 1.75 2.66848 1.75 3V4V4.25H2H18Z" fill="#0D0729" stroke="white" stroke-width="0.5"/>
</svg>
