<svg width="56" height="56" viewBox="0 0 56 56" fill="none" xmlns="http://www.w3.org/2000/svg">
<path d="M52.0001 12.8871V56H5.22656V0.000244141H39.1133L45.1156 6.00264L52.0001 12.8871Z" fill="#FFFEFE"/>
<path d="M26.4315 3.75104H3.99902V13.7882H26.4315V3.75104Z" fill="#B80002"/>
<path d="M12.0458 7.04154C11.9468 6.80244 11.8149 6.58807 11.6335 6.40673C11.4522 6.22538 11.2295 6.07696 10.9739 5.97798C10.7101 5.87079 10.4132 5.82135 10.0835 5.82135H7.61816V12.1864H8.86318V9.78707H10.0835C10.4132 9.78707 10.7101 9.73763 10.9739 9.63044C11.2295 9.53146 11.4521 9.38315 11.6335 9.20169C11.815 9.02035 11.9469 8.81418 12.0458 8.56688C12.1364 8.32779 12.186 8.07218 12.186 7.80837C12.1859 7.53624 12.1364 7.28063 12.0458 7.04154ZM10.7018 8.43487C10.5368 8.59149 10.3061 8.67396 10.0257 8.67396H8.86318V6.92604H10.0257C10.3061 6.92604 10.5369 7.00851 10.7018 7.17333C10.8584 7.32996 10.9409 7.54433 10.9409 7.80815C10.941 8.06387 10.8585 8.27824 10.7018 8.43487Z" fill="#FFFEFE"/>
<path d="M17.9986 8.28637C17.9904 8.06379 17.9821 7.86593 17.9574 7.68448C17.9326 7.50303 17.8914 7.3382 17.8337 7.18157C17.7759 7.03315 17.7018 6.88473 17.6028 6.75282C17.3802 6.43126 17.1081 6.19217 16.803 6.04375C16.4897 5.89532 16.1187 5.82117 15.6817 5.82117H13.3896V12.1862H15.6817C16.1187 12.1862 16.4897 12.1121 16.803 11.9637C17.1081 11.8152 17.3802 11.5762 17.6028 11.2546C17.7018 11.1227 17.7759 10.9743 17.8337 10.8258C17.8914 10.6692 17.9326 10.5043 17.9574 10.3229C17.9821 10.1416 17.9903 9.94362 17.9986 9.72104C18.0068 9.50667 18.0068 9.26757 18.0068 9.00376C18.0068 8.73995 18.0068 8.50075 17.9986 8.28637ZM16.7536 9.64689C16.7536 9.83654 16.7371 9.98496 16.7206 10.1169C16.704 10.2406 16.6793 10.356 16.6464 10.4384C16.6135 10.5291 16.5639 10.6116 16.5063 10.6857C16.3001 10.9495 15.9869 11.0732 15.5746 11.0732H14.6265V6.92596H15.5746C15.9869 6.92596 16.3002 7.05787 16.5063 7.32168C16.564 7.39584 16.6135 7.4701 16.6464 7.56078C16.6793 7.65145 16.7041 7.75864 16.7206 7.89054C16.7371 8.01425 16.7536 8.17087 16.7536 8.35221C16.7618 8.53367 16.7618 8.75625 16.7618 9.00354C16.7619 9.25106 16.7619 9.46543 16.7536 9.64689Z" fill="#FFFEFE"/>
<path d="M23.3168 6.92596V5.82117H19.1201V12.1862H20.3651V9.60565H22.8799V8.49254H20.3651V6.92596H23.3168Z" fill="#FFFEFE"/>
<path d="M12.0458 7.04154C11.9468 6.80244 11.8149 6.58807 11.6335 6.40673C11.4522 6.22538 11.2295 6.07696 10.9739 5.97798C10.7101 5.87079 10.4132 5.82135 10.0835 5.82135H7.61816V12.1864H8.86318V9.78707H10.0835C10.4132 9.78707 10.7101 9.73763 10.9739 9.63044C11.2295 9.53146 11.4521 9.38315 11.6335 9.20169C11.815 9.02035 11.9469 8.81418 12.0458 8.56688C12.1364 8.32779 12.186 8.07218 12.186 7.80837C12.1859 7.53624 12.1364 7.28063 12.0458 7.04154ZM10.7018 8.43487C10.5368 8.59149 10.3061 8.67396 10.0257 8.67396H8.86318V6.92604H10.0257C10.3061 6.92604 10.5369 7.00851 10.7018 7.17333C10.8584 7.32996 10.9409 7.54433 10.9409 7.80815C10.941 8.06387 10.8585 8.27824 10.7018 8.43487Z" fill="#FFFEFE"/>
<path opacity="0.08" d="M52.0001 12.8871V56H5.22656V45.8917L27.0922 24.0261L28.3866 22.7316L29.1039 22.0142L30.2995 20.8188L31.7176 19.4006L45.1156 6.00262L52.0001 12.8871Z" fill="#040000"/>
<path d="M52.0006 12.8883H39.1123V0L52.0006 12.8883Z" fill="#BBBBBA"/>
<path d="M45.322 40.5407C45.0499 40.0625 44.6789 39.6091 44.2172 39.1968C43.838 38.8505 43.3927 38.529 42.8897 38.2321C40.8615 37.0367 37.9675 36.4595 34.0346 36.4595H33.6389C33.4245 36.2616 33.2019 36.0638 32.9711 35.8576C31.4787 34.5137 30.2915 33.0543 29.368 31.4301C31.1819 27.4313 32.0476 23.8695 31.9404 20.8353C31.9239 20.3241 31.8497 19.8459 31.7178 19.4006C31.52 18.6833 31.1902 18.0484 30.7284 17.529C30.7202 17.5208 30.7202 17.5208 30.7119 17.5125C29.9781 16.688 28.9558 16.218 27.9168 16.218C26.8697 16.218 25.9051 16.6715 25.2042 17.5043C24.5117 18.3287 24.1407 19.4584 24.1241 20.7857C24.0994 22.814 24.2643 24.735 24.6106 26.5077C24.6436 26.6479 24.6684 26.788 24.7013 26.9281C25.0476 28.5359 25.5588 30.0612 26.2183 31.4793C25.4433 33.0541 24.6601 34.4145 24.1158 35.338C23.7036 36.0388 23.2501 36.7726 22.7801 37.5064C20.6612 37.8857 18.8638 38.3474 17.2973 38.9246C15.1784 39.6914 13.4799 40.6807 12.2596 41.8598C11.468 42.6183 10.9321 43.4264 10.6683 44.2673C10.388 45.133 10.4045 45.9988 10.7177 46.7738C11.0063 47.4911 11.5257 48.093 12.2183 48.5052C12.3833 48.6042 12.5564 48.6865 12.7378 48.7608C13.2655 48.9752 13.8426 49.0906 14.4445 49.0906C15.8379 49.0906 17.2725 48.4887 18.4844 47.4086C20.7436 45.3886 23.0769 42.1401 24.4538 40.087C25.5833 39.9139 26.8118 39.7655 28.1971 39.6171C29.8296 39.4521 31.2725 39.3532 32.5834 39.3037C32.9875 39.6665 33.375 40.0128 33.746 40.3425C35.8073 42.1811 37.3737 43.5086 38.7919 44.4403C38.7919 44.4485 38.8001 44.4485 38.8084 44.4485C39.3691 44.8195 39.905 45.1245 40.4409 45.3719C41.0428 45.6523 41.6529 45.8007 42.2795 45.8007C43.0711 45.8007 43.8131 45.5616 44.4315 45.1246C45.0581 44.6712 45.5116 44.0198 45.7177 43.286C45.9568 42.404 45.8167 41.4229 45.322 40.5407ZM27.0924 24.0261C26.977 23.0036 26.9274 21.9401 26.9439 20.8188C26.9605 19.7552 27.348 19.0378 27.9168 19.0378C28.3456 19.0378 28.7991 19.4253 29.0051 20.1673C29.0629 20.3899 29.1041 20.6455 29.1123 20.934C29.1288 21.2803 29.1205 21.6431 29.1041 22.0141C29.0547 23.0613 28.8732 24.1743 28.56 25.3699C28.3703 26.1367 28.123 26.9364 27.818 27.7691C27.4717 26.5985 27.2243 25.3535 27.0924 24.0261ZM13.3398 45.7267C13.1996 45.3805 13.3563 44.7126 14.2138 43.8881C15.5248 42.6349 17.5777 41.6455 20.4388 40.8952C19.8946 41.6372 19.3587 42.3134 18.8393 42.9317C18.0477 43.888 17.2892 44.6961 16.6048 45.3062C16.0195 45.8338 15.3763 46.1637 14.7662 46.2462C14.6591 46.2627 14.5519 46.2709 14.4447 46.2709C13.9086 46.271 13.4717 46.0566 13.3398 45.7267ZM26.5152 36.9624L26.5729 36.8717L26.4823 36.8883C26.4988 36.847 26.5235 36.8058 26.5482 36.7729C26.8945 36.1875 27.3315 35.4372 27.8014 34.5715L27.8427 34.6621L27.9499 34.4396C28.2961 34.9343 28.6755 35.4208 29.0712 35.8906C29.2608 36.1132 29.4587 36.3276 29.6566 36.542L29.5246 36.5502L29.64 36.6574C29.302 36.6821 28.9475 36.7151 28.5929 36.748C28.3703 36.7728 28.1394 36.7893 27.9085 36.814C27.4304 36.8634 26.9605 36.913 26.5152 36.9624ZM40.3915 42.1072C39.4103 41.4806 38.3138 40.5984 36.9616 39.4193C38.8827 39.6172 40.3915 40.0377 41.4634 40.6643C41.9333 40.9364 42.2878 41.2168 42.5269 41.4888C42.9226 41.9092 43.0629 42.2885 42.9886 42.5441C42.9226 42.7998 42.6341 42.9729 42.2795 42.9729C42.0733 42.9729 41.8591 42.9235 41.6364 42.8163C41.2571 42.6349 40.8614 42.4122 40.4409 42.1402C40.4244 42.1402 40.408 42.1237 40.3915 42.1072Z" fill="#B80002"/>
</svg>
