<svg width="301" height="966" viewBox="0 0 301 966" fill="none" xmlns="http://www.w3.org/2000/svg">
<g opacity="0.05">
<path d="M301 918.163V966L0 875.257L0 814.598L301 724.595V772.679L225.099 794.625L225.099 895.97L301 918.163ZM168.282 879.449L168.282 811.146L56.3833 843.695V845.668L168.282 879.449Z" fill="white"/>
<path d="M301 562.319C301 605.964 274.543 619.033 215.558 619.033L215.558 578.1C230.304 578.1 244.183 569.47 244.183 557.88V489.33C244.183 471.33 234.641 462.946 210.353 462.946C188.667 462.946 175.656 467.138 175.656 490.563V565.771H123.176L123.176 485.878C123.176 474.535 115.369 466.151 88.0447 466.151C65.0576 466.151 56.817 474.289 56.817 485.878L56.817 554.675C56.817 571.936 66.7925 574.895 85.0086 575.634V616.567C26.8905 616.567 0 599.553 0 558.127L0 488.59C0 442.973 23.8544 425.219 85.0086 425.219C123.176 425.219 138.79 434.342 148.765 448.151C158.741 432.37 175.656 422.013 209.486 422.013C273.676 422.013 301 439.274 301 479.714V562.319Z" fill="white"/>
<path d="M301 387.378H0L0 212.551H56.817L56.817 346.445H122.742L122.742 216.742H175.222L175.222 346.445H244.183L244.183 212.551H301V387.378Z" fill="white"/>
<path d="M0 184.691L0 0H59.853L59.853 72.2488H301V113.182H59.853L59.853 184.691H0Z" fill="white"/>
</g>
</svg>
