<svg width="167" height="853" viewBox="0 0 167 853" fill="none" xmlns="http://www.w3.org/2000/svg">
<g opacity="0.03">
<path d="M167 810.759V853L0 772.872L0 719.309L167 639.834V682.293L124.889 701.672L124.889 791.162L167 810.759ZM93.366 776.574L93.366 716.26L31.2824 745.002V746.744L93.366 776.574Z" fill="#0D0729"/>
<path d="M167 496.54C167 535.08 152.321 546.62 119.595 546.62V510.476C127.777 510.476 135.477 502.855 135.477 492.621L135.477 432.09C135.477 416.195 130.183 408.792 116.707 408.792C104.676 408.792 97.4568 412.493 97.4568 433.178L97.4568 499.589H68.34L68.34 429.041C68.34 419.025 64.0086 411.622 48.8487 411.622C36.0951 411.622 31.5231 418.808 31.5231 429.041L31.5231 489.79C31.5231 505.032 37.0576 507.645 47.1643 508.298L47.1643 544.443C14.9193 544.443 0 529.419 0 492.839L0 431.437C0 391.155 13.2349 375.478 47.1643 375.478C68.34 375.478 77.0029 383.534 82.5375 395.727C88.072 381.792 97.4568 372.647 116.226 372.647C151.84 372.647 167 387.889 167 423.598L167 496.54Z" fill="#0D0729"/>
<path d="M167 342.063L0 342.063L0 187.687H31.5231L31.5231 305.919H68.0994L68.0994 191.389H97.2161L97.2161 305.919H135.477L135.477 187.687H167L167 342.063Z" fill="#0D0729"/>
<path d="M0 163.086L0 0H33.2075L33.2075 63.7973H167V99.9418H33.2075L33.2075 163.086H0Z" fill="#0D0729"/>
</g>
</svg>
