<svg width="1047" height="1017" viewBox="0 0 1047 1017" fill="none" xmlns="http://www.w3.org/2000/svg">
<mask id="mask0_1412_263" style="mask-type:alpha" maskUnits="userSpaceOnUse" x="0" y="0" width="1047" height="1017">
<rect width="1047" height="1017" fill="#D9D9D9"/>
</mask>
<g mask="url(#mask0_1412_263)">
<g opacity="0.5">
<path d="M449.798 287.091C451.592 285.059 454.332 284.138 456.989 284.674L493.822 292.104C501.69 293.691 508.911 297.577 514.569 303.27L518.099 306.822C521.965 310.711 526.983 313.248 532.407 314.056L533.371 314.2C542.173 315.51 549.513 321.611 552.411 330.025L552.835 331.257C554.365 335.698 554.301 340.534 552.654 344.933C550.751 350.017 546.884 354.122 541.923 356.326L540.213 357.086C535.86 359.019 531.041 359.652 526.336 358.908L496.433 354.177C495.005 353.951 493.857 352.88 493.533 351.47C493.206 350.047 493.787 348.568 494.995 347.746L500.976 343.68C507.028 339.565 508.934 331.508 505.365 325.118L503.334 321.483C500.463 316.343 495.334 312.858 489.497 312.083L468.761 309.328C465.284 308.866 462.009 307.429 459.314 305.183L450.629 297.945C447.343 295.207 446.967 290.297 449.798 287.091Z" fill="#959595"/>
<path d="M907.73 747.529C890.701 756.195 871.363 759.237 852.495 756.22L839.334 754.115L812.38 750.786C796.524 748.828 780.452 749.549 764.835 752.919L762.492 753.424C754.808 755.082 746.977 755.972 739.116 756.079C722.728 756.304 706.564 759.925 691.645 766.714L687.681 768.518C680.853 771.625 673.786 774.175 666.548 776.144L655.852 779.053C647.141 780.922 639.059 785.005 632.385 790.908L620.389 801.519L611.587 807.343C603.241 812.865 592.797 814.181 583.341 810.903L576.127 808.401C567.188 805.302 561.291 796.666 561.549 787.208C561.841 776.52 554.218 767.13 543.674 765.358C541.001 764.908 538.267 764.97 535.617 765.539L523.936 768.047C518.833 769.143 513.592 766.911 510.847 762.472C509.885 760.916 509.28 759.165 509.078 757.347L507.614 744.221C507.199 740.498 505.424 737.06 502.629 734.566L502.445 734.402C498.378 730.772 492.643 729.675 487.523 731.547L485.268 732.371C481.669 733.687 479.052 736.834 478.417 740.614C477.728 744.707 474.727 748.028 470.725 749.126L465.881 750.455C460.269 751.994 454.26 750.807 449.654 747.25L441.237 740.749C436.624 737.185 432.848 732.652 430.177 727.471L427.211 721.716C422.909 713.371 421.961 703.698 424.56 694.677C428.558 680.798 440.308 670.543 454.601 668.458L460.635 667.578C464.616 666.997 468.678 667.699 472.233 669.58C476.167 671.663 480.709 672.293 485.061 671.362L486.6 671.033C490.671 670.162 494.435 668.214 497.497 665.394L501.984 661.262C506.181 657.396 511.798 655.45 517.488 655.891C522.548 656.283 527.284 658.534 530.784 662.21L553.121 685.679C554.595 687.227 556.846 687.756 558.855 687.027C561.582 686.037 563.033 683.064 562.136 680.305L556.549 663.129C555.602 660.217 554.109 657.513 552.148 655.161L549.548 652.043C546.34 648.196 544.322 643.498 543.74 638.523C542.641 629.142 546.757 619.911 554.469 614.458L562.419 608.837C574.673 600.173 581.403 585.652 580.091 570.702L579.771 567.044C578.817 556.168 582.147 545.35 589.051 536.892C592.425 532.758 594.979 528.018 596.575 522.926L601.038 508.681C602.723 503.302 606.677 498.929 611.859 496.713C614.103 495.753 616.144 494.376 617.875 492.655L637.087 473.55C638.315 472.328 638.933 470.622 638.771 468.897C638.432 465.296 634.915 462.881 631.433 463.858L624.166 465.898C621.092 466.761 617.811 465.544 616.044 462.884C614.371 460.366 611.328 459.127 608.372 459.759L600.9 461.356C600.262 461.493 599.642 461.702 599.052 461.979L594.823 463.965C589.509 466.46 583.824 461.303 585.79 455.772C586.345 454.212 587.465 452.917 588.928 452.144L623.947 433.634C625.484 432.821 626.76 431.591 627.629 430.085C630.632 424.875 637.736 423.885 642.049 428.075L654.643 440.31C655.791 441.426 657.053 442.418 658.408 443.27L664.758 447.263C667.816 449.186 671.668 449.329 674.86 447.639C680.422 444.695 681.966 437.436 678.084 432.483L676.732 430.758C675.46 429.136 673.789 427.87 671.883 427.085L654.106 419.767C648.299 417.376 642.775 414.348 637.637 410.739L620.17 398.471C612.808 393.301 604.844 389.045 596.454 385.799L585.764 381.663C578.216 378.742 570.136 377.453 562.053 377.879L555.297 378.235C548.016 378.619 540.793 376.768 534.595 372.93L530.781 370.568C527.901 368.784 524.599 367.796 521.212 367.706L510.235 367.414C507.719 367.347 505.493 369.029 504.87 371.467C504.69 372.174 504.655 372.91 504.767 373.63L509.181 401.932C509.713 405.343 511.019 408.587 512.998 411.416L513.163 411.653C515.97 415.665 517.344 420.505 517.064 425.393L516.476 435.67C515.872 446.228 504.757 452.804 495.212 448.252L493.588 447.477C489.402 445.481 486.736 441.256 486.736 436.619C486.736 430.987 482.829 426.109 477.334 424.879L463.963 421.885C460.463 421.102 457.174 419.57 454.323 417.395C448.307 412.807 444.709 405.728 444.55 398.164L444.449 393.369C444.26 384.436 447.515 375.773 453.539 369.175L468.028 353.302C471.543 349.452 473.156 344.234 472.428 339.072L470.829 327.732C470.147 322.898 465.269 319.848 460.624 321.352C458.1 322.169 455.335 321.659 453.27 319.995L449.02 316.57C446.842 314.816 445.105 312.576 443.945 310.031L439.64 300.578C438.698 298.512 436.566 297.254 434.301 297.43C431.541 297.644 429.389 299.91 429.317 302.678L429.069 312.156C428.982 315.481 426.932 318.439 423.848 319.688C419.523 321.438 414.603 319.311 412.915 314.961L404.17 292.415C401.867 286.478 397.068 281.855 391.048 279.776C390.014 279.419 388.954 279.141 387.877 278.944L376.018 276.773C372.792 276.183 369.467 277.007 366.889 279.035C360.551 284.023 361.23 293.828 368.196 297.894L381.191 305.481C382.358 306.162 383.3 307.17 383.901 308.38C386.777 314.174 380.84 320.395 374.918 317.792L343.15 303.827C342.095 303.363 341.082 302.807 340.125 302.164L313.397 284.214C307.391 280.181 302.944 274.216 300.794 267.309L300.38 265.978C296.774 254.395 286.479 246.175 274.385 245.224C265.788 244.547 257.322 247.646 251.193 253.712L240.137 264.654C235.925 268.58 231.527 272.314 226.958 275.842C225.092 277.283 223.064 278.502 220.919 279.48C215.985 281.73 210.962 283.789 205.862 285.651C200.135 287.741 196.125 293.05 196.05 299.145C195.971 305.483 191.663 310.986 185.53 312.583L176.628 314.901C172.29 316.03 169.969 320.751 171.724 324.876C172.935 327.722 175.8 329.504 178.888 329.331L204.931 327.872C214.777 327.32 224.527 330.056 232.648 335.649L233.493 336.231C243.288 342.977 250.194 353.153 252.846 364.746L255.162 374.871C257.123 383.446 257.543 392.302 256.401 401.025L255.146 410.615C253.755 421.242 254.601 432.043 257.63 442.324C261.975 457.073 261.798 472.786 257.123 487.434L252.428 502.144C246.61 520.372 244.979 539.677 247.655 558.622L252.75 594.689C254.856 609.601 259.196 624.111 265.624 637.731L275.682 659.042C277.292 662.454 279.202 665.716 281.389 668.79L299.578 694.356C301.349 696.845 304.3 698.216 307.344 697.963C313.71 697.435 317.327 690.427 314.072 684.931L311.62 680.793C311.05 679.831 310.345 678.956 309.526 678.194L300.894 670.172C298.861 668.282 297.195 666.033 295.981 663.537L288.609 648.385C287.107 645.299 288.448 641.582 291.573 640.165C294.263 638.946 297.44 639.83 299.114 642.263L322.797 676.702L338.72 703.612C341.891 708.971 344.212 714.789 345.601 720.859C348.761 734.678 356.693 746.94 368.002 755.488L372.371 758.791C377.211 762.45 382.476 765.511 388.051 767.906L402.162 773.969C418.887 781.154 436.78 785.236 454.967 786.014L474.231 786.837C487.294 787.396 500.03 791.092 511.362 797.612C515.444 799.961 519.314 802.659 522.929 805.676L525.056 807.451C532.606 813.753 541.255 818.605 550.569 821.763C557.621 824.154 564.973 825.547 572.411 825.9L586.193 826.556C588.327 826.657 590.465 826.432 592.533 825.889L598.238 824.39C607.503 821.955 616.449 828.308 618.578 837.648C619.559 841.956 613.147 855.752 609.668 862.782C608.274 865.599 607.077 868.503 606.171 871.512L603.829 879.289C601.145 888.201 602.548 897.844 607.66 905.622C612.475 912.949 620.13 917.933 628.779 919.371L634.941 920.395C641.053 921.411 646.894 923.659 652.11 927.001L686.673 949.146C689.083 950.69 691.77 951.75 694.585 952.266C703.232 953.852 710.108 960.426 712.081 968.992L712.649 971.456C712.806 972.138 713.047 972.797 713.366 973.42C715.349 977.294 719.941 979.051 723.977 977.424C809.892 942.777 884.682 886.366 940.53 814.065C942.762 811.175 943.682 807.488 943.126 803.879C942.819 801.884 942.962 799.845 943.545 797.913L958.383 748.735C960.517 741.659 956.874 734.128 950.002 731.409C946.211 729.91 941.959 730.11 938.325 731.959L907.73 747.529Z" fill="#959595"/>
<path d="M898.44 284.101C900.2 275.023 897.483 265.653 891.14 258.924L882.908 250.194L863.742 231.538C861.334 229.194 859.47 226.351 858.281 223.209L851.63 205.632C849.411 199.771 853.542 193.446 859.801 193.12L863.515 192.927C866.863 192.753 869.361 189.778 868.954 186.451L868.641 183.893C868.421 182.093 866.768 180.822 864.972 181.072C861.632 181.535 859.886 177.23 862.606 175.237L864.185 174.08L871.215 167.762C874.684 164.645 876.215 159.908 875.227 155.35C874.613 152.522 873.073 149.979 870.849 148.126L863.766 142.224C858.334 137.696 854.206 131.803 851.807 125.151L851.204 123.479C848.187 115.113 842.858 107.747 835.656 102.531C748.313 39.2671 642.679 4.05608 533.525 2.02329C427.191 0.0430511 322.954 29.6494 234.646 86.6156C226.642 91.7787 227.963 103.65 236.78 107.252C243.242 109.893 246.121 117.45 243.052 123.72L239.681 130.608C237.692 134.674 234.331 137.907 230.192 139.739L229.527 140.034C220.786 143.903 215.71 153.137 217.127 162.59L218.415 171.18C219.111 175.82 216.999 180.434 213.032 182.941C211.48 183.922 210.178 185.25 209.228 186.821L205.153 193.558C202.676 197.653 202.021 202.597 203.347 207.196L205.037 213.062C206.352 217.625 210.739 220.598 215.464 220.128L218.053 219.871C223.247 219.355 227.495 223.945 226.579 229.083C225.598 234.594 230.521 239.34 235.992 238.156L240.037 237.281C243.209 236.595 245.894 234.5 247.331 231.591L268.171 189.403C269.565 186.58 270.237 183.456 270.126 180.31C269.819 171.596 275.476 163.79 283.853 161.369L294.751 158.218C299.882 156.735 303.948 152.81 305.612 147.735C307.221 142.825 311.082 138.982 315.999 137.396L332.767 131.986C338.497 130.137 342.282 124.684 342.009 118.669C341.725 112.385 345.864 106.754 351.947 105.149L361.218 102.704C364.783 101.764 368.089 100.05 370.969 97.7477C373.449 95.7651 376.627 93.2811 379.497 91.2127C383.769 88.1349 388.918 87.0816 394.177 87.332C396.381 87.4369 398.581 87.5875 400.778 87.7837C405.693 88.2226 410.446 89.6908 414.908 91.7976L416.81 92.6953C425.2 96.6567 434.662 97.7417 443.731 95.7821C451.208 94.1665 458.175 90.4822 463.754 85.2487C470.339 79.0713 478.787 75.0475 487.742 73.8955L489.965 73.6096C498.071 72.5667 506.348 74.3132 514.516 74.0182C515.237 73.9922 515.958 73.9413 516.677 73.8654C532.68 70.423 548.244 63.5631 563.739 68.8362L578.888 73.9911L589.779 78.7833C593.594 80.462 596.389 83.8475 597.315 87.9113L597.516 88.7942C598.858 94.681 604.326 98.684 610.343 98.1845L613.277 97.9409C616.452 97.6773 619.146 95.5051 620.077 92.4578C621.256 88.6006 625.185 86.2823 629.131 87.1161L634.519 88.2547C637.435 88.8707 639.614 91.3049 639.906 94.2702C640.183 97.0783 638.705 99.7676 636.186 101.039L629.855 104.235C618.752 109.839 617.099 125.019 626.734 132.883L629.585 135.21C631.631 136.88 633.994 138.119 636.531 138.851L672.035 149.102C678.349 150.925 684.216 154.036 689.267 158.241L696.931 164.621C702.156 168.971 708.95 170.96 715.695 170.116L724.275 169.043C729.093 168.44 733.054 164.956 734.268 160.255L735.175 156.74C735.459 155.641 736.207 154.72 737.224 154.216C740.175 152.755 740.106 148.523 737.109 147.16L708.708 134.236C708.082 133.951 707.392 133.835 706.707 133.898L700.724 134.453C697.815 134.723 696.616 130.819 699.174 129.408C700.809 128.507 701.054 126.256 699.652 125.023L694.241 120.266C689.609 116.194 691.349 108.607 697.293 106.96L701.082 105.911C702.821 105.429 704.659 105.433 706.396 105.921L715.086 108.365C726.807 111.661 736.505 119.91 741.638 130.95C744.543 137.196 748.948 142.627 754.46 146.757L755.399 147.461C760.314 151.143 764.449 155.764 767.565 161.056L774.844 173.42C779.182 180.788 785.779 186.563 793.657 189.887L794.63 190.298C805.798 195.01 814.019 204.803 816.728 216.618L817.722 220.957C819.955 230.696 826.963 238.644 836.346 242.078L840.676 243.662C848.337 246.466 853.806 253.295 854.866 261.385C854.866 271.88 857.78 282.169 863.284 291.106L866.946 297.053L867.439 298.075C870.073 303.536 875.699 306.91 881.756 306.663C888.602 306.383 894.416 301.56 895.955 294.884L898.44 284.101Z" fill="#959595"/>
<path d="M890.066 148.131C890.031 148.08 889.952 148.115 889.966 148.175L891.488 154.556C891.52 154.69 891.53 154.827 891.518 154.964L890.268 169.183C889.94 172.911 890.609 176.66 892.206 180.044L894.419 184.734C896.117 188.332 899.533 190.815 903.48 191.32L904.343 191.431C908.674 191.985 912.199 195.184 913.17 199.442L914.801 206.602C915.678 210.448 912.355 213.946 908.47 213.269C904.713 212.614 901.439 215.874 902.078 219.634L910.141 267.099C911.156 273.073 910.784 279.2 909.054 285.007L908.619 286.468C905.062 298.406 906.491 311.274 912.578 322.141L916.189 328.587C918.886 333.402 922.854 337.382 927.66 340.094C935.043 344.261 940.327 351.347 942.215 359.611L950.004 393.709C952.485 404.567 956.611 414.982 962.241 424.593L980.754 456.197L1000.01 481.832C1003.96 487.09 1010.07 490.282 1016.64 490.516C1027.56 490.904 1037.07 483.144 1038.89 472.373L1039.7 467.55C1039.92 466.264 1040.48 465.061 1041.32 464.067C1042.59 462.573 1043.2 460.625 1043 458.674C1030.7 341.08 976.651 231.274 890.074 148.139C890.071 148.137 890.069 148.134 890.066 148.131Z" fill="white"/>
<path d="M614.884 206.915C610.937 202.944 605.886 200.255 600.389 199.197L529.952 185.646C524.219 184.543 518.314 184.706 512.651 186.124L493.443 190.934C489.207 191.995 486.039 195.521 485.436 199.846L485.285 200.928C484.261 208.271 475.899 212.004 469.749 207.863C466.848 205.91 463.139 205.609 459.961 207.068L454.355 209.642C445.756 213.591 440.856 222.8 442.385 232.138L444.653 245.996C445.631 251.972 449.616 257.023 455.2 259.365L459.677 261.243C466.199 263.979 473.7 260.884 476.396 254.346C479.395 247.076 488.197 244.227 494.887 248.362L504.294 254.176L530.431 267.986C542.497 274.362 552.137 284.522 557.87 296.907C561.959 305.739 568.059 313.491 575.683 319.541L588.576 329.773C598.361 337.54 611.54 339.511 623.169 334.948L639.619 328.493C647.348 325.461 651.448 316.998 649.038 309.053C648.382 306.89 647.272 304.891 645.783 303.189L640.489 297.141C635.293 291.205 631.482 284.188 629.331 276.597L621.606 249.33C620.194 244.35 620.317 239.059 621.958 234.149C625.043 224.919 622.66 214.738 615.799 207.836L614.884 206.915Z" fill="#959595"/>
<path d="M680.054 225.07C680.054 218.076 674.538 212.327 667.551 212.037C663.349 211.863 659.32 213.725 656.731 217.04L655.138 219.079C650.832 224.59 650.091 232.091 653.236 238.338L660.764 253.296C662.85 257.442 667.475 259.654 672.012 258.676C676.704 257.664 680.054 253.515 680.054 248.715V225.07Z" fill="#959595"/>
<path d="M798.615 216.757C798.007 213.027 795.268 210 791.617 209.024L755.857 199.466C753.119 198.735 750.636 197.261 748.682 195.209L743.236 189.488C741.342 187.499 738.308 187.123 735.986 188.59C733.287 190.296 732.49 193.872 734.21 196.562L744.94 213.352L755.575 235.017C757.833 239.618 762.191 242.829 767.254 243.624L775.839 244.972C777.673 245.26 779.477 244.3 780.263 242.617C780.996 241.048 780.682 239.188 779.474 237.946L778.657 237.106C774.748 233.088 778.163 226.401 783.709 227.212L789.921 228.12C795.27 228.901 799.837 224.259 798.968 218.924L798.615 216.757Z" fill="#959595"/>
<path d="M543.245 711.139C542.137 711.02 541.055 711.532 540.445 712.465C539.207 714.359 540.46 716.885 542.716 717.046L570.791 719.053C574.446 719.314 577.953 720.599 580.912 722.76L587.218 727.366C591.987 730.849 597.889 732.416 603.758 731.758L613.657 730.649C616.436 730.337 618.802 728.488 619.775 725.867C621.622 720.895 617.798 715.651 612.5 715.889L596.152 716.624C595.227 716.666 594.3 716.637 593.379 716.538L543.245 711.139Z" fill="#959595"/>
<path d="M657.83 713.962C655.668 711.66 652.234 711.085 649.44 712.558L636.096 719.593C633.053 721.197 632.074 725.086 633.994 727.94C635.314 729.902 637.695 730.863 640.008 730.367L665.266 724.948C666.736 724.632 667.941 723.581 668.453 722.167L668.608 721.737C669.785 718.486 666.693 715.31 663.411 716.398C661.88 716.906 660.193 716.479 659.089 715.303L657.83 713.962Z" fill="#959595"/>
<path d="M892.265 866.757C1095.92 668.9 1095.92 348.11 892.265 150.252C688.607 -47.6049 358.413 -47.6049 154.755 150.252C-48.9027 348.11 -48.9028 668.9 154.755 866.757C358.413 1064.61 688.607 1064.61 892.265 866.757Z" stroke="#868585" stroke-width="2" stroke-linecap="round" stroke-linejoin="round"/>
<path d="M523.536 1015.15C704.07 1015.15 850.422 788.317 850.422 508.504C850.422 228.692 704.07 1.85864 523.536 1.85864C343.002 1.85864 196.65 228.692 196.65 508.504C196.65 788.317 343.002 1015.15 523.536 1015.15Z" stroke="#868585" stroke-linecap="round" stroke-linejoin="round"/>
<path d="M523.536 1015.15C589.274 1015.15 642.564 788.317 642.564 508.504C642.564 228.692 589.274 1.85864 523.536 1.85864C457.799 1.85864 404.508 228.692 404.508 508.504C404.508 788.317 457.799 1015.15 523.536 1015.15Z" stroke="#868585" stroke-linecap="round" stroke-linejoin="round"/>
<path d="M237.377 88.1158H812.371" stroke="#868585" stroke-linecap="round" stroke-linejoin="round"/>
<path d="M44.5332 309.082H1001.07" stroke="#868585" stroke-linecap="round" stroke-linejoin="round"/>
<path d="M237.377 928.431H812.371" stroke="#868585" stroke-linecap="round" stroke-linejoin="round"/>
<path d="M45.1367 707.466H1004.83" stroke="#868585" stroke-linecap="round" stroke-linejoin="round"/>
<path d="M1045.03 508.504H2.03711" stroke="#868585" stroke-linecap="round" stroke-linejoin="round"/>
<path d="M311.251 232.407C323.192 231.576 335.249 231.161 347.424 231.161C465.158 231.203 579.269 271.895 670.486 346.365C761.703 420.835 824.434 524.519 848.086 639.905C871.738 755.291 854.86 875.308 800.303 979.686C745.746 1084.06 656.854 1166.4 548.64 1212.8C440.425 1259.2 319.521 1266.81 206.346 1234.35C93.1709 1201.89 -5.33826 1131.35 -72.5442 1034.64C-139.75 937.929 -158.496 1072.1 -149.49 954.661" stroke="white" stroke-width="2" stroke-linejoin="round" stroke-dasharray="4.01 4.01"/>
</g>
<path d="M315.438 251.71L312.369 248.598" stroke="#B80002" stroke-width="2" stroke-linejoin="round"/>
<path d="M251.124 240.113L247.703 244.393L256.606 251.508L260.027 247.228L251.124 240.113Z" fill="white" stroke="#B80002" stroke-linecap="round" stroke-linejoin="round"/>
<path d="M240.246 234.219L239.548 235.092C238.249 236.719 238.514 239.091 240.141 240.39L245.483 244.658C247.11 245.958 249.482 245.692 250.781 244.066L251.479 243.192C252.779 241.566 252.513 239.194 250.887 237.894L245.544 233.626C243.917 232.327 241.545 232.592 240.246 234.219Z" fill="white" stroke="#B80002" stroke-linecap="round" stroke-linejoin="round"/>
<path d="M284.555 198.21L281.135 202.49L290.038 209.605L293.459 205.325L284.555 198.21Z" fill="white" stroke="#B80002" stroke-linecap="round" stroke-linejoin="round"/>
<path d="M273.758 192.381L273.06 193.254C271.761 194.881 272.026 197.253 273.652 198.552L278.994 202.821C280.62 204.121 282.992 203.856 284.292 202.23L284.99 201.357C286.29 199.73 286.025 197.358 284.398 196.058L279.057 191.789C277.43 190.49 275.058 190.755 273.758 192.381Z" fill="white" stroke="#B80002" stroke-linecap="round" stroke-linejoin="round"/>
<path d="M311.099 258.242C311.099 258.242 306.825 298.876 308.425 300.169C310.025 301.462 314.825 304.837 314.825 304.837L330.999 271.962L311.099 258.242Z" fill="white" stroke="#B80002" stroke-linecap="round" stroke-linejoin="round"/>
<path d="M310.858 265.606L309.959 274.767L325.915 282.285L330.517 272.926L311.099 258.242C311.099 258.242 310.879 260.433 310.551 263.545L310.858 265.606Z" fill="#B80002" stroke="#B80002" stroke-linecap="round" stroke-linejoin="round"/>
<path d="M313.246 255.546C313.246 255.546 351.952 242.395 353.552 243.689C355.152 244.982 359.535 248.905 359.535 248.905L331.043 271.94L313.246 255.546Z" fill="white" stroke="#B80002" stroke-linecap="round" stroke-linejoin="round"/>
<path d="M253.961 220.763L249.095 299.139C249.038 299.971 249.239 300.8 249.671 301.514C250.102 302.228 250.743 302.792 251.506 303.128C252.015 303.365 252.568 303.495 253.13 303.508C253.691 303.52 254.25 303.416 254.769 303.202C255.288 302.988 255.757 302.668 256.146 302.263C256.536 301.857 256.836 301.376 257.029 300.848L270.289 262.537L282.76 243.294L253.961 220.763Z" fill="white" stroke="#B80002" stroke-linecap="round" stroke-linejoin="round"/>
<path d="M278.42 249.869L282.738 243.184L253.96 220.763L253.391 229.859L278.42 249.869Z" fill="#B80002" stroke="#B80002" stroke-linecap="round" stroke-linejoin="round"/>
<path d="M263.648 208.643L339.021 186.594C339.815 186.376 340.656 186.399 341.437 186.66C342.218 186.922 342.903 187.41 343.405 188.063C343.742 188.519 343.982 189.04 344.109 189.593C344.236 190.146 344.247 190.719 344.142 191.277C344.038 191.834 343.819 192.364 343.499 192.833C343.18 193.302 342.767 193.7 342.287 194.002L307.877 215.372L291.856 231.766L263.648 208.643Z" fill="white" stroke="#B80002" stroke-linecap="round" stroke-linejoin="round"/>
<path d="M282.168 221.947C318.484 250.921 345.376 277.704 342.133 281.715C338.889 285.726 306.89 265.452 270.573 236.434C255.911 224.73 238.114 211.514 227.879 201.893C212.778 187.647 209.249 179.45 211.156 177.061C213.063 174.672 222.772 176.622 239.824 188.019C251.528 195.931 267.374 210.09 282.168 221.947Z" fill="white" stroke="#B80002" stroke-linecap="round" stroke-linejoin="round"/>
<path d="M310.135 260.543L310.858 265.606V266.241C324.425 275.381 334.857 281.189 339.613 282.087L342.199 281.715L311.099 258.242L310.135 260.543Z" fill="#B80002" stroke="#B80002" stroke-linecap="round" stroke-linejoin="round"/>
<path d="M309.863 254.856L309.234 255.643C308.101 257.062 308.331 259.13 309.75 260.264L322.899 270.772C324.318 271.906 326.386 271.675 327.52 270.256L328.149 269.469C329.283 268.05 329.052 265.982 327.633 264.848L314.484 254.34C313.066 253.206 310.997 253.437 309.863 254.856Z" fill="white" stroke="#B80002" stroke-linecap="round" stroke-linejoin="round"/>
<path d="M343.426 282.307C343.286 282.484 343.111 282.631 342.913 282.739C342.715 282.847 342.497 282.915 342.272 282.937C342.047 282.96 341.82 282.937 341.604 282.87C341.388 282.803 341.188 282.693 341.016 282.548L320.348 265.408L321.838 263.524L343.185 279.918C343.362 280.056 343.508 280.229 343.616 280.425C343.724 280.621 343.792 280.838 343.814 281.061C343.837 281.284 343.814 281.509 343.747 281.723C343.681 281.937 343.572 282.136 343.426 282.307Z" fill="white" stroke="#B80002" stroke-width="0.5" stroke-linecap="round" stroke-linejoin="round"/>
<path d="M220.45 191.263C220.358 191.359 220.248 191.436 220.125 191.488C220.003 191.54 219.871 191.567 219.738 191.567C219.605 191.567 219.473 191.54 219.351 191.488C219.228 191.436 219.118 191.359 219.026 191.263C215.453 187.756 214.313 183.395 216.308 180.896C218.302 178.398 222.664 178.507 226.894 181.181C227.116 181.325 227.273 181.55 227.33 181.809C227.387 182.067 227.341 182.337 227.201 182.562C227.129 182.675 227.036 182.772 226.927 182.849C226.818 182.926 226.694 182.98 226.563 183.009C226.433 183.037 226.298 183.04 226.167 183.015C226.035 182.991 225.91 182.942 225.798 182.869C222.598 180.852 219.223 180.523 217.886 182.145C216.549 183.767 217.667 187.099 220.45 189.816C220.547 189.91 220.624 190.023 220.676 190.147C220.729 190.271 220.756 190.405 220.756 190.54C220.756 190.674 220.729 190.808 220.676 190.932C220.624 191.056 220.547 191.169 220.45 191.263Z" fill="#B80002"/>
</g>
</svg>
