<svg width="0" height="0">
	<symbol xmlns="http://www.w3.org/2000/svg" id="ic_user" viewBox="0 0 24 24">
		<path d="M15.7105 12.7101C16.6909 11.9388 17.4065 10.881 17.7577 9.68407C18.109 8.48709 18.0784 7.21039 17.6703 6.03159C17.2621 4.85279 16.4967 3.83052 15.4806 3.10698C14.4644 2.38344 13.2479 1.99463 12.0005 1.99463C10.753 1.99463 9.5366 2.38344 8.52041 3.10698C7.50423 3.83052 6.73883 4.85279 6.3307 6.03159C5.92257 7.21039 5.892 8.48709 6.24325 9.68407C6.59449 10.881 7.31009 11.9388 8.29048 12.7101C6.61056 13.3832 5.14477 14.4995 4.04938 15.94C2.95398 17.3806 2.27005 19.0914 2.07048 20.8901C2.05604 21.0214 2.0676 21.1543 2.10451 21.2812C2.14142 21.408 2.20295 21.5264 2.2856 21.6294C2.4525 21.8376 2.69527 21.971 2.96049 22.0001C3.2257 22.0293 3.49164 21.9519 3.69981 21.785C3.90798 21.6181 4.04131 21.3753 4.07049 21.1101C4.29007 19.1553 5.22217 17.3499 6.6887 16.0389C8.15524 14.7279 10.0534 14.0032 12.0205 14.0032C13.9876 14.0032 15.8857 14.7279 17.3523 16.0389C18.8188 17.3499 19.7509 19.1553 19.9705 21.1101C19.9977 21.3558 20.1149 21.5828 20.2996 21.7471C20.4843 21.9115 20.7233 22.0016 20.9705 22.0001H21.0805C21.3426 21.97 21.5822 21.8374 21.747 21.6314C21.9119 21.4253 21.9886 21.1625 21.9605 20.9001C21.76 19.0963 21.0724 17.3811 19.9713 15.9383C18.8703 14.4955 17.3974 13.3796 15.7105 12.7101ZM12.0005 12.0001C11.2094 12.0001 10.436 11.7655 9.7782 11.326C9.12041 10.8865 8.60772 10.2618 8.30497 9.53086C8.00222 8.79995 7.923 7.99569 8.07734 7.21976C8.23168 6.44384 8.61265 5.73111 9.17206 5.1717C9.73147 4.61229 10.4442 4.23132 11.2201 4.07698C11.996 3.92264 12.8003 4.00186 13.5312 4.30461C14.2621 4.60736 14.8868 5.12005 15.3264 5.77784C15.7659 6.43564 16.0005 7.209 16.0005 8.00012C16.0005 9.06099 15.5791 10.0784 14.8289 10.8286C14.0788 11.5787 13.0614 12.0001 12.0005 12.0001Z" stroke="none"/>
	</symbol>

	<symbol xmlns="http://www.w3.org/2000/svg" id="ic_lupa" viewBox="0 0 24 24">
		<path d="M10 17C13.866 17 17 13.866 17 10C17 6.13401 13.866 3 10 3C6.13401 3 3 6.13401 3 10C3 13.866 6.13401 17 10 17Z" fill="none" stroke-width="1.5" stroke-linecap="round" stroke-linejoin="round"/>
		<path d="M15 15L21 21" fill="none" stroke-width="1.5" stroke-linecap="round" stroke-linejoin="round"/>
	</symbol>

	<symbol xmlns="http://www.w3.org/2000/svg" id="arrow1" viewBox="0 0 16 12">
		<path d="M10.6131 0.5L9.96985 1.05L14.4724 5.60714H0V6.39286H14.4724L9.96985 10.95L10.6131 11.5L16 6L10.6131 0.5Z"/>
	</symbol>

	<symbol xmlns="http://www.w3.org/2000/svg" id="arrow2" viewBox="0 0 23 15">
		<path d="M1.22217 6.44438C0.669881 6.44438 0.222167 6.89209 0.222168 7.44438C0.222169 7.99666 0.669885 8.44438 1.22217 8.44438L1.22217 6.44438ZM22.2223 8.15144C22.6128 7.76092 22.6128 7.12775 22.2223 6.73723L15.8583 0.37328C15.4678 -0.0172443 14.8346 -0.0172429 14.4441 0.373282C14.0535 0.763807 14.0535 1.39697 14.4441 1.7875L20.1009 7.44434L14.4441 13.1012C14.0536 13.4917 14.0536 14.1249 14.4441 14.5154C14.8346 14.9059 15.4678 14.9059 15.8583 14.5154L22.2223 8.15144ZM1.22217 8.44438L21.5152 8.44434L21.5151 6.44434L1.22217 6.44438L1.22217 8.44438Z"/>
	</symbol>

	<symbol xmlns="http://www.w3.org/2000/svg" id="burger" viewBox="0 0 24 24">
		<path d="M1.5 17.5H22.5M1.5 11.7105H22.5M1.5 6.5H22.5" fill="none"/>
	</symbol>

	<symbol xmlns="http://www.w3.org/2000/svg" id="ic_close" viewBox="0 0 24 24">
		<path d="M24 1.27434L22.7257 0L12 10.7257L1.27434 0L0 1.27434L10.7257 12L0 22.7257L1.27434 24L12 13.2743L22.7257 24L24 22.7257L13.2743 12L24 1.27434Z" stroke="none"/>
	</symbol>

	<symbol xmlns="http://www.w3.org/2000/svg" id="ic_eye" viewBox="0 0 24 24">
		<path d="M21.9196 11.6C19.8996 6.91 16.0996 4 11.9996 4C7.89958 4 4.09958 6.91 2.07958 11.6C2.02452 11.7262 1.99609 11.8623 1.99609 12C1.99609 12.1377 2.02452 12.2738 2.07958 12.4C4.09958 17.09 7.89958 20 11.9996 20C16.0996 20 19.8996 17.09 21.9196 12.4C21.9746 12.2738 22.0031 12.1377 22.0031 12C22.0031 11.8623 21.9746 11.7262 21.9196 11.6ZM11.9996 18C8.82958 18 5.82958 15.71 4.09958 12C5.82958 8.29 8.82958 6 11.9996 6C15.1696 6 18.1696 8.29 19.8996 12C18.1696 15.71 15.1696 18 11.9996 18ZM11.9996 8C11.2085 8 10.4351 8.2346 9.7773 8.67412C9.1195 9.11365 8.60681 9.73836 8.30406 10.4693C8.00131 11.2002 7.9221 12.0044 8.07644 12.7804C8.23078 13.5563 8.61174 14.269 9.17115 14.8284C9.73056 15.3878 10.4433 15.7688 11.2192 15.9231C11.9951 16.0775 12.7994 15.9983 13.5303 15.6955C14.2612 15.3928 14.8859 14.8801 15.3255 14.2223C15.765 13.5645 15.9996 12.7911 15.9996 12C15.9996 10.9391 15.5782 9.92172 14.828 9.17157C14.0779 8.42143 13.0604 8 11.9996 8ZM11.9996 14C11.604 14 11.2173 13.8827 10.8884 13.6629C10.5595 13.4432 10.3032 13.1308 10.1518 12.7654C10.0004 12.3999 9.96084 11.9978 10.038 11.6098C10.1152 11.2219 10.3057 10.8655 10.5854 10.5858C10.8651 10.3061 11.2214 10.1156 11.6094 10.0384C11.9974 9.96126 12.3995 10.0009 12.7649 10.1522C13.1304 10.3036 13.4428 10.56 13.6625 10.8889C13.8823 11.2178 13.9996 11.6044 13.9996 12C13.9996 12.5304 13.7889 13.0391 13.4138 13.4142C13.0387 13.7893 12.53 14 11.9996 14Z"/>
	</symbol>

	<symbol xmlns="http://www.w3.org/2000/svg" id="ic_logout" viewBox="0 0 17 19">
		<path d="M5.875 3.1875H5C2.93761 3.1875 1.90641 3.1875 1.2657 3.8282C0.625 4.46891 0.625 5.50011 0.625 7.5625V8M5.875 16.3125H5C2.93761 16.3125 1.90641 16.3125 1.2657 15.6718C0.625 15.0311 0.625 13.9999 0.625 11.9375V11.5" fill="none" stroke-linecap="round"/>
		<path d="M9.9504 1.30394C8.05856 0.973973 7.11269 0.808992 6.49384 1.35761C5.875 1.90622 5.875 2.90976 5.875 4.91685V14.5831C5.875 16.5902 5.875 17.5938 6.49384 18.1424C7.11269 18.691 8.05856 18.526 9.9504 18.196L11.9881 17.8407C14.0833 17.4752 15.1308 17.2925 15.753 16.524C16.375 15.7556 16.375 14.6441 16.375 12.4213V7.07872C16.375 4.85588 16.375 3.74445 15.753 2.97597C15.3373 2.46241 14.7315 2.21045 13.75 1.99074" fill="none" stroke-linecap="round"/>
		<path d="M8.5 8.875V10.625" fill="none" stroke-linecap="round"/>
	</symbol>

	<symbol xmlns="http://www.w3.org/2000/svg" id="ic_minus" viewBox="0 0 20 21">
		<path d="M4.16602 9.625H15.8327V11.375H4.16602V9.625Z"/>
	</symbol>

	<symbol xmlns="http://www.w3.org/2000/svg" id="ic_plus" viewBox="0 0 20 21">
		<path d="M9.16602 9.625V4.375H10.8327V9.625H15.8327V11.375H10.8327V16.625H9.16602V11.375H4.16602V9.625H9.16602Z"/>
	</symbol>
</svg>